# This file uses centimeters as units for non-parametric coordinates.

mtllib DockRail_Short.mtl
g default
v -499.009613 -0.568894 79.139557
v -499.027039 -0.568894 81.136566
v -497.627289 -0.568894 82.560944
v -495.630280 -0.568894 82.578400
v -494.205872 -0.568894 81.178619
v -494.188416 -0.568894 79.181610
v -495.588196 -0.568894 77.757233
v -497.585205 -0.568894 77.739777
v -499.009613 34.723610 79.139557
v -499.027039 34.723610 81.136566
v -497.627289 34.723610 82.560944
v -495.630280 34.723610 82.578400
v -494.205872 34.723610 81.178619
v -494.188416 34.723610 79.181610
v -495.588196 34.723610 77.757233
v -497.585205 34.723610 77.739777
v -496.607727 -0.568894 80.159088
v -496.607727 34.723610 80.159088
v -494.029449 34.723610 85.917755
v -494.029449 34.723610 27.794891
v -494.029449 36.721630 85.917755
v -494.029449 36.721630 27.794891
v -500.532532 36.721630 85.917755
v -500.532501 36.721630 27.794891
v -500.532532 34.723610 85.917755
v -500.532501 34.723610 27.794891
v -497.228149 15.859951 85.917755
v -497.228149 15.859951 27.794891
v -495.694305 15.859951 85.917755
v -495.694275 15.859951 27.794891
v -495.694305 19.809023 85.917755
v -495.694275 19.809023 27.794891
v -497.228149 19.809023 85.917755
v -497.228149 19.809023 27.794891
v -499.009613 -0.568894 33.119255
v -499.027039 -0.568894 35.116264
v -497.627289 -0.568894 36.540642
v -495.630249 -0.568894 36.558098
v -494.205841 -0.568894 35.158318
v -494.188416 -0.568894 33.161308
v -495.588196 -0.568894 31.736898
v -497.585205 -0.568894 31.719473
v -499.009613 34.723610 33.119255
v -499.027039 34.723610 35.116264
v -497.627289 34.723610 36.540642
v -495.630249 34.723610 36.558098
v -494.205841 34.723610 35.158318
v -494.188416 34.723610 33.161308
v -495.588196 34.723610 31.736898
v -497.585205 34.723610 31.719473
v -496.607727 -0.568894 34.138786
v -496.607727 34.723610 34.138786
vt 0.527558 0.001872
vt 0.559717 0.001872
vt 0.559717 0.570210
vt 0.527558 0.570210
vt 0.582655 0.001872
vt 0.582655 0.570210
vt 0.505017 0.001872
vt 0.505017 0.570210
vt 0.650342 0.001872
vt 0.682501 0.001872
vt 0.682501 0.570210
vt 0.650342 0.570210
vt 0.705439 0.001872
vt 0.705439 0.570210
vt 0.627801 0.001872
vt 0.627801 0.570210
vt 0.001992 0.937863
vt 0.001992 0.001872
vt 0.034168 0.001872
vt 0.034168 0.937863
vt 0.184432 0.001872
vt 0.184432 0.937863
vt 0.152256 0.937863
vt 0.152256 0.001872
vt 0.333509 0.937863
vt 0.333509 0.001872
vt 0.397103 0.001872
vt 0.397103 0.937863
vt 0.498449 0.001872
vt 0.498449 0.937863
vt 0.434854 0.937863
vt 0.434854 0.001872
vt 0.773126 0.001872
vt 0.805285 0.001872
vt 0.805285 0.570210
vt 0.773126 0.570210
vt 0.828223 0.001872
vt 0.828223 0.570210
vt 0.750585 0.001872
vt 0.750585 0.570210
vt 0.895910 0.001872
vt 0.928069 0.001872
vt 0.928069 0.570210
vt 0.895910 0.570210
vt 0.951008 0.001872
vt 0.951008 0.570210
vt 0.873369 0.001872
vt 0.873369 0.570210
vt 0.843465 0.628903
vt 0.843745 0.596743
vt 0.882425 0.613162
vt 0.866684 0.574202
vt 0.866006 0.651840
vt 0.898843 0.574483
vt 0.898165 0.652121
vt 0.921385 0.597421
vt 0.921103 0.629580
vt 0.759691 0.629580
vt 0.759411 0.597421
vt 0.798370 0.613162
vt 0.781951 0.574483
vt 0.782630 0.652121
vt 0.814111 0.574202
vt 0.814788 0.651840
vt 0.837049 0.596743
vt 0.837330 0.628902
vt 0.145890 0.001872
vt 0.145890 0.937863
vt 0.041166 0.937863
vt 0.041166 0.001872
vt 0.191235 0.937863
vt 0.191235 0.001872
vt 0.295959 0.001872
vt 0.295959 0.937863
vt 0.302326 0.937863
vt 0.302326 0.001872
vt 0.327027 0.001872
vt 0.327027 0.937863
vt 0.428372 0.001872
vt 0.428372 0.937863
vt 0.403671 0.937863
vt 0.403671 0.001872
vt 0.675355 0.628902
vt 0.675635 0.596743
vt 0.714315 0.613162
vt 0.698574 0.574202
vt 0.697896 0.651840
vt 0.730733 0.574482
vt 0.730055 0.652121
vt 0.753275 0.597421
vt 0.752994 0.629580
vt 0.591580 0.629580
vt 0.591300 0.597421
vt 0.630259 0.613162
vt 0.613840 0.574483
vt 0.614519 0.652121
vt 0.646000 0.574202
vt 0.646678 0.651841
vt 0.668939 0.596743
vt 0.669219 0.628903
vt 0.588822 0.001872
vt 0.620981 0.001872
vt 0.620981 0.570210
vt 0.588822 0.570210
vt 0.743764 0.570210
vt 0.711606 0.570210
vt 0.711606 0.001872
vt 0.743764 0.001872
vt 0.998008 0.574202
vt 0.998008 0.678925
vt 0.965832 0.678925
vt 0.965832 0.574202
vt 0.927520 0.678925
vt 0.927520 0.574202
vt 0.959696 0.574202
vt 0.959696 0.678925
vt 0.560463 0.637796
vt 0.560463 0.574202
vt 0.585164 0.574202
vt 0.585164 0.637796
vt 0.529627 0.637796
vt 0.529627 0.574202
vt 0.554328 0.574202
vt 0.554328 0.637796
vt 0.834390 0.001872
vt 0.866549 0.001872
vt 0.866549 0.570210
vt 0.834390 0.570210
vt 0.989332 0.570210
vt 0.957174 0.570210
vt 0.957174 0.001872
vt 0.989332 0.001872
vn -0.999962 0.000000 -0.008725
vn -0.999962 0.000000 -0.008725
vn -0.999962 0.000000 -0.008725
vn -0.999962 0.000000 -0.008725
vn -0.713247 0.000000 0.700913
vn -0.713247 0.000000 0.700913
vn -0.713247 0.000000 0.700913
vn -0.713247 0.000000 0.700913
vn -0.008739 0.000000 0.999962
vn -0.008739 0.000000 0.999962
vn -0.008739 0.000000 0.999962
vn -0.008739 0.000000 0.999962
vn 0.700915 0.000000 0.713245
vn 0.700915 0.000000 0.713245
vn 0.700915 0.000000 0.713245
vn 0.700915 0.000000 0.713245
vn 0.999962 0.000000 0.008741
vn 0.999962 0.000000 0.008741
vn 0.999962 0.000000 0.008741
vn 0.999962 0.000000 0.008741
vn 0.713240 0.000000 -0.700920
vn 0.713240 0.000000 -0.700920
vn 0.713240 0.000000 -0.700920
vn 0.713240 0.000000 -0.700920
vn 0.008739 0.000000 -0.999962
vn 0.008739 0.000000 -0.999962
vn 0.008739 0.000000 -0.999962
vn 0.008739 0.000000 -0.999962
vn -0.700913 0.000000 -0.713247
vn -0.700913 0.000000 -0.713247
vn -0.700913 0.000000 -0.713247
vn -0.700913 0.000000 -0.713247
vn 0.000000 -1.000000 0.000000
vn 0.000000 -1.000000 0.000000
vn 0.000000 -1.000000 0.000000
vn 0.000000 -1.000000 0.000000
vn 0.000000 -1.000000 0.000000
vn 0.000000 -1.000000 0.000000
vn 0.000000 -1.000000 -0.000000
vn 0.000000 -1.000000 -0.000000
vn 0.000000 -1.000000 0.000000
vn 0.000000 1.000000 0.000000
vn 0.000000 1.000000 0.000000
vn 0.000000 1.000000 -0.000000
vn 0.000000 1.000000 0.000001
vn 0.000000 1.000000 0.000001
vn 0.000000 1.000000 0.000000
vn 0.000000 1.000000 0.000000
vn 0.000000 1.000000 -0.000001
vn 0.000000 1.000000 -0.000001
vn 1.000000 0.000000 0.000000
vn 1.000000 0.000000 0.000000
vn 1.000000 0.000000 0.000000
vn 1.000000 0.000000 0.000000
vn 0.000000 1.000000 -0.000000
vn 0.000000 1.000000 -0.000000
vn 0.000000 1.000000 -0.000000
vn 0.000000 1.000000 -0.000000
vn -1.000000 0.000000 -0.000001
vn -1.000000 0.000000 -0.000001
vn -1.000000 0.000000 -0.000001
vn -1.000000 0.000000 -0.000001
vn 0.000000 -1.000000 0.000000
vn 0.000000 -1.000000 0.000000
vn 0.000000 -1.000000 0.000000
vn 0.000000 -1.000000 0.000000
vn 0.000000 0.000000 -1.000000
vn 0.000000 0.000000 -1.000000
vn 0.000000 0.000000 -1.000000
vn 0.000000 0.000000 -1.000000
vn 0.000000 0.000000 1.000000
vn 0.000000 0.000000 1.000000
vn 0.000000 0.000000 1.000000
vn 0.000000 0.000000 1.000000
vn 0.000000 -1.000000 0.000000
vn 0.000000 -1.000000 0.000000
vn 0.000000 -1.000000 0.000000
vn 0.000000 -1.000000 0.000000
vn 1.000000 0.000000 0.000001
vn 1.000000 0.000000 0.000001
vn 1.000000 0.000000 0.000001
vn 1.000000 0.000000 0.000001
vn 0.000000 1.000000 0.000000
vn 0.000000 1.000000 0.000000
vn 0.000000 1.000000 0.000000
vn 0.000000 1.000000 0.000000
vn -1.000000 0.000000 0.000000
vn -1.000000 0.000000 0.000000
vn -1.000000 0.000000 0.000000
vn -1.000000 0.000000 0.000000
vn 0.000000 0.000000 -1.000000
vn 0.000000 0.000000 -1.000000
vn 0.000000 0.000000 -1.000000
vn 0.000000 0.000000 -1.000000
vn 0.000000 0.000000 1.000000
vn 0.000000 0.000000 1.000000
vn 0.000000 0.000000 1.000000
vn 0.000000 0.000000 1.000000
vn -0.999962 0.000000 -0.008725
vn -0.999962 0.000000 -0.008725
vn -0.999962 0.000000 -0.008725
vn -0.999962 0.000000 -0.008725
vn -0.713246 0.000000 0.700913
vn -0.713246 0.000000 0.700913
vn -0.713246 0.000000 0.700913
vn -0.713246 0.000000 0.700913
vn -0.008741 0.000000 0.999962
vn -0.008741 0.000000 0.999962
vn -0.008741 0.000000 0.999962
vn -0.008741 0.000000 0.999962
vn 0.700914 0.000000 0.713246
vn 0.700914 0.000000 0.713246
vn 0.700914 0.000000 0.713246
vn 0.700914 0.000000 0.713246
vn 0.999962 0.000000 0.008725
vn 0.999962 0.000000 0.008725
vn 0.999962 0.000000 0.008725
vn 0.999962 0.000000 0.008725
vn 0.713246 0.000000 -0.700913
vn 0.713246 0.000000 -0.700913
vn 0.713246 0.000000 -0.700913
vn 0.713246 0.000000 -0.700913
vn 0.008725 0.000000 -0.999962
vn 0.008725 0.000000 -0.999962
vn 0.008725 0.000000 -0.999962
vn 0.008725 0.000000 -0.999962
vn -0.700915 0.000000 -0.713245
vn -0.700915 0.000000 -0.713245
vn -0.700915 0.000000 -0.713245
vn -0.700915 0.000000 -0.713245
vn 0.000000 -1.000000 0.000000
vn 0.000000 -1.000000 0.000000
vn 0.000000 -1.000000 0.000000
vn 0.000000 -1.000000 0.000000
vn 0.000000 -1.000000 0.000000
vn 0.000000 -1.000000 0.000000
vn 0.000000 -1.000000 -0.000000
vn 0.000000 -1.000000 -0.000000
vn 0.000000 -1.000000 0.000000
vn 0.000000 1.000000 0.000000
vn 0.000000 1.000000 0.000000
vn 0.000000 1.000000 0.000000
vn 0.000000 1.000000 0.000001
vn 0.000000 1.000000 0.000001
vn 0.000000 1.000000 0.000000
vn 0.000000 1.000000 0.000000
vn 0.000000 1.000000 -0.000001
vn 0.000000 1.000000 -0.000001
s off
g DockRail1_3rd
usemtl initialShadingGroup
f 1/1/1 2/2/2 10/3/3 9/4/4
f 2/2/5 3/5/6 11/6/7 10/3/8
f 3/101/9 4/102/10 12/103/11 11/104/12
f 4/15/13 5/9/14 13/12/15 12/16/16
f 5/9/17 6/10/18 14/11/19 13/12/20
f 6/10/21 7/13/22 15/14/23 14/11/24
f 7/105/25 8/106/26 16/107/27 15/108/28
f 8/7/29 1/1/30 9/4/31 16/8/32
s 1
f 2/49/33 1/50/34 17/51/35
f 3/53/36 2/49/33 17/51/35
f 4/55/37 3/53/36 17/51/35
f 5/57/38 4/55/37 17/51/35
f 6/56/39 5/57/38 17/51/35
f 7/54/40 6/56/39 17/51/35
f 8/52/41 7/54/40 17/51/35
f 1/50/34 8/52/41 17/51/35
s 2
f 9/58/42 10/59/43 18/60/44
f 10/59/43 11/61/45 18/60/44
f 11/61/45 12/63/46 18/60/44
f 12/63/46 13/65/47 18/60/44
f 13/65/47 14/66/48 18/60/44
f 14/66/48 15/64/49 18/60/44
f 15/64/49 16/62/50 18/60/44
f 16/62/50 9/58/42 18/60/44
s off
f 19/17/51 20/18/52 22/19/53 21/20/54
f 21/67/55 22/68/56 24/69/57 23/70/58
f 23/21/59 24/22/60 26/23/61 25/24/62
f 25/71/63 26/72/64 20/73/65 19/74/66
f 20/109/67 26/110/68 24/111/69 22/112/70
f 25/113/71 19/114/72 21/115/73 23/116/74
f 27/75/75 28/76/76 30/77/77 29/78/78
f 29/25/79 30/26/80 32/27/81 31/28/82
f 31/79/83 32/80/84 34/81/85 33/82/86
f 33/29/87 34/30/88 28/31/89 27/32/90
f 28/117/91 34/118/92 32/119/93 30/120/94
f 33/121/95 27/122/96 29/123/97 31/124/98
f 35/33/99 36/34/100 44/35/101 43/36/102
f 36/34/103 37/37/104 45/38/105 44/35/106
f 37/125/107 38/126/108 46/127/109 45/128/110
f 38/47/111 39/41/112 47/44/113 46/48/114
f 39/41/115 40/42/116 48/43/117 47/44/118
f 40/42/119 41/45/120 49/46/121 48/43/122
f 41/129/123 42/130/124 50/131/125 49/132/126
f 42/39/127 35/33/128 43/36/129 50/40/130
s 3
f 36/83/131 35/84/132 51/85/133
f 37/87/134 36/83/131 51/85/133
f 38/89/135 37/87/134 51/85/133
f 39/91/136 38/89/135 51/85/133
f 40/90/137 39/91/136 51/85/133
f 41/88/138 40/90/137 51/85/133
f 42/86/139 41/88/138 51/85/133
f 35/84/132 42/86/139 51/85/133
s 4
f 43/92/140 44/93/141 52/94/142
f 44/93/141 45/95/143 52/94/142
f 45/95/143 46/97/144 52/94/142
f 46/97/144 47/99/145 52/94/142
f 47/99/145 48/100/146 52/94/142
f 48/100/146 49/98/147 52/94/142
f 49/98/147 50/96/148 52/94/142
f 50/96/148 43/92/140 52/94/142
