# This file uses centimeters as units for non-parametric coordinates.

mtllib Urn.mtl
g default
v -508.308803 3.701639 66.731070
v -514.865503 3.701639 64.015195
v -521.422236 3.701639 66.731070
v -524.138082 3.701639 73.287774
v -521.422236 3.701639 79.844478
v -514.865503 3.701639 82.560353
v -508.308803 3.701639 79.844480
v -505.592925 3.701639 73.287774
v -510.548345 18.385720 68.970620
v -514.865503 18.385720 67.182397
v -519.182685 18.385720 68.970620
v -520.970904 18.385720 73.287774
v -519.182685 18.385720 77.604928
v -514.865503 18.385720 79.393151
v -510.548345 18.385720 77.604928
v -508.760126 18.385720 73.287774
v -514.865503 -0.257331 73.287774
v -518.745086 18.385720 77.167354
v -514.865503 18.385720 78.774327
v -510.985944 18.385720 77.167354
v -509.378947 18.385720 73.287774
v -510.985944 18.385720 69.408194
v -514.865503 18.385720 67.801221
v -518.745086 18.385720 69.408194
v -520.352060 18.385720 73.287774
v -510.725117 17.266196 69.147390
v -514.865503 17.266196 67.432387
v -519.005890 17.266196 69.147390
v -520.720908 17.266196 73.287774
v -519.005890 17.266196 77.428158
v -514.865503 17.266196 79.143162
v -510.725117 17.266196 77.428158
v -509.010099 17.266196 73.287774
v -510.725117 16.333699 69.147390
v -514.865503 16.333699 67.432387
v -519.005890 16.333699 69.147390
v -520.720908 16.333699 73.287774
v -519.005890 16.333699 77.428158
v -514.865503 16.333699 79.143162
v -510.725117 16.333699 77.428158
v -509.010099 16.333699 73.287774
v -510.221258 15.793764 68.643527
v -514.865503 15.793764 66.719816
v -519.509749 15.793764 68.643527
v -521.433447 15.793764 73.287774
v -519.509749 15.793764 77.932021
v -514.865503 15.793764 79.855732
v -510.221258 15.793764 77.932023
v -508.297560 15.793764 73.287774
v -510.985944 4.895369 69.408195
v -514.865503 4.895369 67.801221
v -514.865503 4.895369 73.287774
v -518.745086 4.895368 69.408195
v -520.352060 4.895368 73.287774
v -518.745086 4.895368 77.167353
v -514.865503 4.895369 78.774327
v -510.985944 4.895368 77.167353
v -509.378947 4.895368 73.287774
v -507.988023 11.799662 66.410289
v -514.865503 11.799662 63.561541
v -521.743000 11.799662 66.410289
v -524.591724 11.799662 73.287774
v -521.743000 11.799662 80.165259
v -514.865503 11.799662 83.014007
v -507.988023 11.799662 80.165260
v -505.139283 11.799662 73.287774
v -507.243858 8.059745 65.666123
v -514.865503 8.059745 62.509132
v -522.487177 8.059745 65.666123
v -525.644139 8.059745 73.287774
v -522.487177 8.059745 80.909425
v -514.865503 8.059745 84.066416
v -507.243858 8.059745 80.909426
v -504.086868 8.059745 73.287774
v -511.587153 -0.574054 70.009422
v -514.865503 -0.574054 68.651485
v -518.143870 -0.574054 70.009422
v -519.501793 -0.574054 73.287774
v -518.143870 -0.574054 76.566126
v -514.865503 -0.574054 77.924063
v -511.587153 -0.574054 76.566127
v -510.229214 -0.574054 73.287774
v -510.418197 11.640544 68.840445
v -514.865503 11.640544 66.998301
v -519.312836 11.640544 68.840445
v -521.154981 11.640544 73.287774
v -519.312836 11.640544 77.735103
v -514.865503 11.640544 79.577247
v -510.418197 11.640544 77.735103
v -508.576026 11.640544 73.287774
vt 0.057489 0.385839
vt 0.123615 0.385839
vt 0.123615 0.409926
vt 0.054665 0.409926
vt 0.057489 0.365776
vt 0.123615 0.365776
vt 0.189741 0.385839
vt 0.192564 0.409926
vt 0.049441 0.354158
vt 0.123615 0.354158
vt 0.189741 0.365776
vt 0.013775 0.268222
vt 0.123615 0.268222
vt 0.197788 0.354158
vt 0.001889 0.187755
vt 0.123615 0.187755
vt 0.233455 0.268222
vt 0.018898 0.093987
vt 0.123615 0.093987
vt 0.245340 0.187755
vt 0.071256 0.001992
vt 0.123615 0.001992
vt 0.228332 0.093987
vt 0.175973 0.001992
vt 0.307216 0.385839
vt 0.373343 0.385839
vt 0.373343 0.409926
vt 0.304393 0.409926
vt 0.307216 0.365776
vt 0.373343 0.365776
vt 0.439469 0.385839
vt 0.442292 0.409926
vt 0.299169 0.354158
vt 0.373343 0.354158
vt 0.439469 0.365776
vt 0.263502 0.268222
vt 0.373343 0.268222
vt 0.447516 0.354158
vt 0.251617 0.187755
vt 0.373343 0.187755
vt 0.483183 0.268222
vt 0.268625 0.093987
vt 0.373343 0.093987
vt 0.495068 0.187755
vt 0.320984 0.001992
vt 0.373343 0.001992
vt 0.478060 0.093987
vt 0.425701 0.001992
vt 0.334153 0.558840
vt 0.263125 0.558840
vt 0.263125 0.413712
vt 0.325086 0.413712
vt 0.325086 0.703967
vt 0.263125 0.703967
vt 0.192096 0.558840
vt 0.201164 0.413712
vt 0.201164 0.703967
vt 0.143946 0.852880
vt 0.072918 0.852880
vt 0.072918 0.707753
vt 0.134878 0.707753
vt 0.134878 0.998008
vt 0.072918 0.998008
vt 0.001889 0.852880
vt 0.010957 0.707753
vt 0.010957 0.998008
vt 0.501021 0.739348
vt 0.526686 0.801308
vt 0.439060 0.801308
vt 0.501021 0.863269
vt 0.439060 0.713683
vt 0.439060 0.888934
vt 0.377099 0.739348
vt 0.377099 0.863269
vt 0.351434 0.801308
vt 0.178511 0.736313
vt 0.247461 0.707753
vt 0.247461 0.717637
vt 0.185500 0.743301
vt 0.316410 0.736313
vt 0.309421 0.743301
vt 0.149951 0.805262
vt 0.159835 0.805262
vt 0.344970 0.805262
vt 0.335087 0.805262
vt 0.178511 0.874212
vt 0.185500 0.867223
vt 0.316410 0.874212
vt 0.309421 0.867223
vt 0.247461 0.902771
vt 0.247461 0.892888
vt 0.592565 0.487758
vt 0.644923 0.509446
vt 0.592565 0.561804
vt 0.592565 0.413712
vt 0.697282 0.457087
vt 0.666611 0.561804
vt 0.540206 0.509446
vt 0.487847 0.457087
vt 0.644923 0.614163
vt 0.518519 0.561804
vt 0.592565 0.635851
vt 0.540206 0.614163
vt 0.697282 0.666522
vt 0.592565 0.709897
vt 0.487847 0.666522
vt 0.689012 0.026080
vt 0.622886 0.026080
vt 0.622886 0.001992
vt 0.691835 0.001992
vt 0.689012 0.046143
vt 0.622886 0.046143
vt 0.556760 0.026080
vt 0.553936 0.001992
vt 0.697059 0.057760
vt 0.622886 0.057760
vt 0.556760 0.046143
vt 0.732726 0.143697
vt 0.622886 0.143697
vt 0.548713 0.057760
vt 0.744611 0.224163
vt 0.622886 0.224163
vt 0.513045 0.143697
vt 0.727603 0.317932
vt 0.622886 0.317932
vt 0.501160 0.224163
vt 0.518168 0.317932
vt 0.758700 0.613569
vt 0.824827 0.613569
vt 0.824827 0.637656
vt 0.755877 0.637656
vt 0.758700 0.593506
vt 0.824827 0.593506
vt 0.890953 0.613569
vt 0.893776 0.637656
vt 0.750653 0.581888
vt 0.824827 0.581888
vt 0.890953 0.593506
vt 0.714986 0.495952
vt 0.824827 0.495952
vt 0.899000 0.581888
vt 0.703101 0.415485
vt 0.824827 0.415485
vt 0.934667 0.495952
vt 0.720109 0.321717
vt 0.824827 0.321717
vt 0.946552 0.415485
vt 0.929544 0.321717
vt 0.482028 0.558840
vt 0.411000 0.558840
vt 0.411000 0.413712
vt 0.472961 0.413712
vt 0.472961 0.703967
vt 0.411000 0.703967
vt 0.339972 0.558840
vt 0.349039 0.413712
vt 0.349039 0.703967
vt 0.044221 0.558840
vt 0.115249 0.558839
vt 0.115249 0.703968
vt 0.053289 0.703968
vt 0.053289 0.413712
vt 0.115249 0.413712
vt 0.186277 0.558840
vt 0.177210 0.703968
vt 0.177210 0.413712
vn 0.380150 -0.114858 -0.917765
vn 0.380150 -0.114858 -0.917765
vn 0.374791 -0.202048 -0.904825
vn 0.374791 -0.202048 -0.904825
vn -0.380150 -0.114860 -0.917765
vn -0.380150 -0.114861 -0.917765
vn -0.374789 -0.202052 -0.904825
vn -0.374789 -0.202052 -0.904825
vn -0.917764 -0.114865 -0.380152
vn -0.917764 -0.114865 -0.380152
vn -0.904822 -0.202060 -0.374791
vn -0.904822 -0.202060 -0.374791
vn -0.917764 -0.114865 0.380152
vn -0.917764 -0.114865 0.380152
vn -0.904822 -0.202061 0.374791
vn -0.904822 -0.202060 0.374791
vn -0.380150 -0.114861 0.917765
vn -0.380150 -0.114860 0.917765
vn -0.374789 -0.202051 0.904825
vn -0.374789 -0.202051 0.904825
vn 0.380151 -0.114858 0.917765
vn 0.380151 -0.114858 0.917765
vn 0.374791 -0.202048 0.904825
vn 0.374791 -0.202048 0.904825
vn 0.917765 -0.114854 0.380153
vn 0.917765 -0.114854 0.380153
vn 0.904826 -0.202042 0.374792
vn 0.904826 -0.202042 0.374792
vn 0.917765 -0.114854 -0.380153
vn 0.917765 -0.114854 -0.380153
vn 0.904826 -0.202042 -0.374792
vn 0.904826 -0.202042 -0.374792
vn -0.000000 -0.735116 -0.677941
vn 0.479377 -0.735116 -0.479377
vn 0.422689 -0.801665 -0.422689
vn 0.000000 -0.801665 -0.597773
vn -0.479376 -0.735117 -0.479376
vn -0.422689 -0.801666 -0.422689
vn -0.677941 -0.735116 0.000000
vn -0.597773 -0.801666 0.000000
vn -0.479376 -0.735117 0.479376
vn -0.422689 -0.801666 0.422689
vn -0.000000 -0.735116 0.677941
vn 0.000000 -0.801665 0.597773
vn 0.479377 -0.735116 0.479377
vn 0.422689 -0.801665 0.422689
vn 0.677941 -0.735116 0.000000
vn 0.597773 -0.801665 0.000000
vn 0.000000 1.000000 0.000000
vn -0.000000 1.000000 0.000000
vn -0.000000 1.000000 -0.000000
vn -0.000000 1.000000 0.000000
vn -0.000000 1.000000 -0.000000
vn -0.000000 1.000000 -0.000000
vn -0.000000 1.000000 0.000000
vn 0.000000 1.000000 0.000000
vn 0.000000 1.000000 0.000000
vn 0.000000 1.000000 0.000000
vn 0.000000 1.000000 0.000000
vn 0.000000 1.000000 0.000000
vn 0.000000 1.000000 0.000000
vn 0.000000 1.000000 0.000000
vn 0.000000 1.000000 0.000000
vn 0.000000 1.000000 0.000000
vn 0.000000 1.000000 0.000000
vn 0.000000 1.000000 0.000000
vn 0.000000 1.000000 0.000000
vn 0.000000 1.000000 0.000000
vn 0.000000 1.000000 0.000000
vn 0.000000 1.000000 0.000000
vn 0.000000 1.000000 0.000000
vn 0.000000 1.000000 0.000000
vn 0.000000 1.000000 0.000000
vn 0.340838 0.454682 -0.822857
vn 0.340838 0.454682 -0.822857
vn -0.340838 0.454682 -0.822857
vn -0.340838 0.454682 -0.822857
vn -0.822860 0.454673 -0.340842
vn -0.822861 0.454673 -0.340842
vn -0.822861 0.454673 0.340842
vn -0.822860 0.454673 0.340842
vn -0.340839 0.454682 0.822857
vn -0.340838 0.454682 0.822857
vn 0.340838 0.454682 0.822857
vn 0.340838 0.454682 0.822857
vn 0.822860 0.454674 0.340842
vn 0.822860 0.454673 0.340842
vn 0.822861 0.454673 -0.340842
vn 0.822860 0.454673 -0.340842
vn 0.303944 0.607601 -0.733784
vn 0.303944 0.607601 -0.733784
vn -0.303943 0.607601 -0.733784
vn -0.303943 0.607601 -0.733784
vn -0.733785 0.607601 -0.303942
vn -0.733785 0.607601 -0.303942
vn -0.733785 0.607601 0.303942
vn -0.733785 0.607601 0.303942
vn -0.303943 0.607601 0.733784
vn -0.303943 0.607601 0.733784
vn 0.303944 0.607601 0.733785
vn 0.303943 0.607601 0.733784
vn 0.733786 0.607600 0.303943
vn 0.733786 0.607600 0.303943
vn 0.733786 0.607600 -0.303943
vn 0.733786 0.607600 -0.303943
vn 0.348317 0.414177 -0.840912
vn 0.348317 0.414177 -0.840912
vn -0.348316 0.414178 -0.840912
vn -0.348316 0.414177 -0.840912
vn -0.840912 0.414179 -0.348314
vn -0.840912 0.414179 -0.348314
vn -0.840912 0.414179 0.348314
vn -0.840912 0.414179 0.348314
vn -0.348316 0.414177 0.840912
vn -0.348316 0.414178 0.840912
vn 0.348317 0.414177 0.840912
vn 0.348317 0.414177 0.840912
vn 0.840912 0.414178 0.348316
vn 0.840912 0.414178 0.348316
vn 0.840912 0.414178 -0.348316
vn 0.840912 0.414178 -0.348316
vn -0.382685 0.000000 0.923879
vn -0.382685 0.000000 0.923879
vn -0.380392 0.109316 0.918342
vn -0.380392 0.109316 0.918342
vn 0.382683 0.000000 0.923880
vn 0.382683 0.000000 0.923880
vn 0.380390 0.109316 0.918343
vn 0.380390 0.109316 0.918343
vn 0.923880 0.000000 0.382683
vn 0.923880 0.000000 0.382683
vn 0.918343 0.109316 0.380390
vn 0.918343 0.109316 0.380390
vn 0.923880 0.000000 -0.382683
vn 0.923880 0.000000 -0.382683
vn 0.918343 0.109316 -0.380390
vn 0.918343 0.109316 -0.380390
vn 0.382683 0.000000 -0.923880
vn 0.382683 0.000000 -0.923880
vn 0.380390 0.109316 -0.918343
vn 0.380390 0.109316 -0.918343
vn -0.382685 0.000000 -0.923879
vn -0.382685 0.000000 -0.923879
vn -0.380392 0.109316 -0.918342
vn -0.380392 0.109316 -0.918342
vn -0.923877 0.000000 -0.382688
vn -0.923878 0.000000 -0.382688
vn -0.918341 0.109316 -0.380395
vn -0.918341 0.109316 -0.380395
vn -0.923878 0.000000 0.382688
vn -0.923877 0.000000 0.382688
vn -0.918341 0.109316 0.380395
vn -0.918341 0.109316 0.380395
vn 0.382264 -0.046838 -0.922865
vn 0.382264 -0.046838 -0.922865
vn -0.382263 -0.046838 -0.922866
vn -0.382262 -0.046838 -0.922866
vn -0.922867 -0.046836 -0.382260
vn -0.922867 -0.046836 -0.382260
vn -0.922867 -0.046836 0.382260
vn -0.922867 -0.046836 0.382260
vn -0.382263 -0.046838 0.922866
vn -0.382263 -0.046838 0.922866
vn 0.382264 -0.046838 0.922866
vn 0.382263 -0.046838 0.922866
vn 0.922866 -0.046837 0.382263
vn 0.922866 -0.046837 0.382263
vn 0.922866 -0.046837 -0.382263
vn 0.922866 -0.046837 -0.382263
vn 0.364554 -0.304146 -0.880111
vn 0.364554 -0.304146 -0.880111
vn -0.364553 -0.304146 -0.880111
vn -0.364553 -0.304146 -0.880111
vn -0.880113 -0.304145 -0.364551
vn -0.880113 -0.304145 -0.364551
vn -0.880113 -0.304145 0.364551
vn -0.880113 -0.304145 0.364551
vn -0.364553 -0.304146 0.880112
vn -0.364553 -0.304146 0.880111
vn 0.364554 -0.304146 0.880111
vn 0.364554 -0.304146 0.880111
vn 0.880111 -0.304146 0.364554
vn 0.880111 -0.304146 0.364554
vn 0.880111 -0.304146 -0.364554
vn 0.880111 -0.304146 -0.364554
vn -0.000000 -1.000000 0.000000
vn -0.380392 -0.109316 0.918342
vn -0.380392 -0.109316 0.918342
vn 0.380390 -0.109316 0.918343
vn 0.380390 -0.109316 0.918343
vn 0.918343 -0.109316 0.380390
vn 0.918343 -0.109316 0.380390
vn 0.918343 -0.109316 -0.380390
vn 0.918343 -0.109316 -0.380390
vn 0.380389 -0.109316 -0.918343
vn 0.380389 -0.109316 -0.918343
vn -0.380392 -0.109316 -0.918342
vn -0.380392 -0.109316 -0.918342
vn -0.918341 -0.109316 -0.380395
vn -0.918341 -0.109316 -0.380395
vn -0.918341 -0.109316 0.380395
vn -0.918341 -0.109316 0.380395
s 1
g Urn
usemtl initialShadingGroup
f 26/107/1 27/108/2 10/109/3 9/110/4
s 2
f 27/108/5 28/113/6 11/114/7 10/109/8
s 3
f 28/1/9 29/2/10 12/3/11 11/4/12
s 4
f 29/2/13 30/7/14 13/8/15 12/3/16
s 5
f 30/128/17 31/129/18 14/130/19 13/131/20
s 6
f 31/129/21 32/134/22 15/135/23 14/130/24
s 7
f 32/25/25 33/26/26 16/27/27 15/28/28
s 8
f 33/26/29 26/31/30 9/32/31 16/27/32
s 9
f 2/95/33 1/96/34 75/93/35 76/92/36
f 3/99/37 2/95/33 76/92/36 77/98/38
f 4/19/39 3/18/37 77/21/38 78/22/40
f 5/23/41 4/19/39 78/22/40 79/24/42
f 6/105/43 5/106/41 79/103/42 80/102/44
f 7/104/45 6/105/43 80/102/44 81/100/46
f 8/43/47 7/42/45 81/45/46 82/46/48
f 1/47/34 8/43/47 82/46/48 75/48/35
s 10
f 50/67/49 51/68/50 52/69/51
f 51/68/50 53/70/52 52/69/51
f 53/70/52 54/72/53 52/69/51
f 54/72/53 55/74/54 52/69/51
f 55/74/54 56/75/55 52/69/51
f 56/75/55 57/73/56 52/69/51
f 57/73/56 58/71/57 52/69/51
f 58/71/57 50/67/49 52/69/51
s 11
f 13/76/58 14/77/59 19/78/60 18/79/61
f 14/77/59 15/80/62 20/81/63 19/78/60
f 15/80/62 16/84/64 21/85/65 20/81/63
f 16/84/64 9/88/66 22/89/67 21/85/65
f 9/88/66 10/90/68 23/91/69 22/89/67
f 10/90/68 11/86/70 24/87/71 23/91/69
f 11/86/70 12/82/72 25/83/73 24/87/71
f 12/82/72 13/76/58 18/79/61 25/83/73
s 1
f 34/111/74 35/112/75 27/108/2 26/107/1
s 2
f 35/112/76 36/117/77 28/113/6 27/108/5
s 3
f 36/5/78 37/6/79 29/2/10 28/1/9
s 4
f 37/6/80 38/11/81 30/7/14 29/2/13
s 5
f 38/132/82 39/133/83 31/129/18 30/128/17
s 6
f 39/133/84 40/138/85 32/134/22 31/129/21
s 7
f 40/29/86 41/30/87 33/26/26 32/25/25
s 8
f 41/30/88 34/35/89 26/31/30 33/26/29
s 1
f 42/115/90 43/116/91 35/112/75 34/111/74
s 2
f 43/116/92 44/120/93 36/117/77 35/112/76
s 3
f 44/9/94 45/10/95 37/6/79 36/5/78
s 4
f 45/10/96 46/14/97 38/11/81 37/6/80
s 5
f 46/136/98 47/137/99 39/133/83 38/132/82
s 6
f 47/137/100 48/141/101 40/138/85 39/133/84
s 7
f 48/33/102 49/34/103 41/30/87 40/29/86
s 8
f 49/34/104 42/38/105 34/35/89 41/30/88
s 1
f 59/118/106 60/119/107 43/116/91 42/115/90
s 2
f 60/119/108 61/123/109 44/120/93 43/116/92
s 3
f 61/12/110 62/13/111 45/10/95 44/9/94
s 4
f 62/13/112 63/17/113 46/14/97 45/10/96
s 5
f 63/139/114 64/140/115 47/137/99 46/136/98
s 6
f 64/140/116 65/144/117 48/141/101 47/137/100
s 7
f 65/36/118 66/37/119 49/34/103 48/33/102
s 8
f 66/37/120 59/41/121 42/38/105 49/34/104
s 12
f 83/149/122 84/150/123 51/151/124 50/152/125
s 13
f 84/150/126 85/155/127 53/156/128 51/151/129
s 14
f 85/49/130 86/50/131 54/51/132 53/52/133
s 15
f 86/50/134 87/55/135 55/56/136 54/51/137
s 16
f 87/158/138 88/159/139 56/160/140 55/161/141
s 17
f 88/159/142 89/164/143 57/165/144 56/160/145
s 18
f 89/58/146 90/59/147 58/60/148 57/61/149
s 19
f 90/59/150 83/64/151 50/65/152 58/60/153
s 1
f 67/121/154 68/122/155 60/119/107 59/118/106
s 2
f 68/122/156 69/126/157 61/123/109 60/119/108
s 3
f 69/15/158 70/16/159 62/13/111 61/12/110
s 4
f 70/16/160 71/20/161 63/17/113 62/13/112
s 5
f 71/142/162 72/143/163 64/140/115 63/139/114
s 6
f 72/143/164 73/147/165 65/144/117 64/140/116
s 7
f 73/39/166 74/40/167 66/37/119 65/36/118
s 8
f 74/40/168 67/44/169 59/41/121 66/37/120
s 1
f 1/124/170 2/125/171 68/122/155 67/121/154
s 2
f 2/125/172 3/127/173 69/126/157 68/122/156
s 3
f 3/18/174 4/19/175 70/16/159 69/15/158
s 4
f 4/19/176 5/23/177 71/20/161 70/16/160
s 5
f 5/145/178 6/146/179 72/143/163 71/142/162
s 6
f 6/146/180 7/148/181 73/147/165 72/143/164
s 7
f 7/42/182 8/43/183 74/40/167 73/39/166
s 8
f 8/43/184 1/47/185 67/44/169 74/40/168
s 9
f 76/92/36 75/93/35 17/94/186
f 77/98/38 76/92/36 17/94/186
f 78/101/40 77/98/38 17/94/186
f 79/103/42 78/101/40 17/94/186
f 80/102/44 79/103/42 17/94/186
f 81/100/46 80/102/44 17/94/186
f 82/97/48 81/100/46 17/94/186
f 75/93/35 82/97/48 17/94/186
s 12
f 22/153/187 23/154/188 84/150/123 83/149/122
s 13
f 23/154/189 24/157/190 85/155/127 84/150/126
s 14
f 24/53/191 25/54/192 86/50/131 85/49/130
s 15
f 25/54/193 18/57/194 87/55/135 86/50/134
s 16
f 18/162/195 19/163/196 88/159/139 87/158/138
s 17
f 19/163/197 20/166/198 89/164/143 88/159/142
s 18
f 20/62/199 21/63/200 90/59/147 89/58/146
s 19
f 21/63/201 22/66/202 83/64/151 90/59/150
