# This file uses centimeters as units for non-parametric coordinates.

mtllib Sign.mtl
g default
v -12.303333 87.795074 1.735759
v 12.303333 87.795074 1.735759
v -12.303333 112.401733 1.735759
v 12.303333 112.401733 1.735759
v -12.303333 112.401733 1.078779
v 12.303333 112.401733 1.078779
v -12.303333 87.795074 1.078779
v 12.303333 87.795074 1.078779
v 0.000000 87.604347 1.740851
v 0.000000 87.604347 1.073686
v 0.000000 112.592461 1.073686
v 0.000000 112.592461 1.740851
v -11.781263 87.604347 1.740851
v -11.781263 87.604347 1.073686
v -11.781263 112.592461 1.073686
v -11.781263 112.592461 1.740851
v 11.781263 87.604347 1.740851
v 11.781263 112.592461 1.740851
v 11.781263 112.592461 1.073686
v 11.781263 87.604347 1.073686
v -12.494058 112.116516 1.740851
v -11.601419 111.933060 1.735759
v 0.000000 111.933060 1.735759
v 11.601419 111.933052 1.735759
v 12.494058 112.116516 1.740851
v 12.494058 112.116516 1.073686
v 11.601419 111.933060 1.078779
v 0.000000 111.933052 1.078779
v -11.601419 111.933052 1.078779
v -12.494058 112.116516 1.073686
v -12.494058 88.123253 1.740851
v -11.601419 88.306046 1.735759
v 0.000000 88.306046 1.735759
v 11.601419 88.306053 1.735759
v 12.494058 88.123253 1.740851
v 12.494058 88.123245 1.073686
v 11.601419 88.306046 1.078779
v 0.000000 88.306053 1.078779
v -11.601419 88.306053 1.078779
v -12.494058 88.123245 1.073686
v 1.183270 -3.514678 -0.859696
v 0.451969 -3.514678 -1.391018
v -0.451969 -3.514678 -1.391017
v -1.183270 -3.514678 -0.859696
v -1.462602 -3.514678 0.000000
v -1.183270 -3.514678 0.859696
v -0.451969 -3.514678 1.391017
v 0.451969 -3.514678 1.391017
v 1.183270 -3.514678 0.859696
v 1.462602 -3.514678 0.000000
v 1.183270 110.555618 -0.859696
v 0.451969 110.555618 -1.391018
v -0.451969 110.555618 -1.391017
v -1.183270 110.555618 -0.859696
v -1.462602 110.555618 0.000000
v -1.183270 110.555618 0.859696
v -0.451969 110.555618 1.391017
v 0.451969 110.555618 1.391017
v 1.183270 110.555618 0.859696
v 1.462602 110.555618 0.000000
v 0.000000 -3.514678 0.000000
v 0.000000 110.555618 0.000000
vt 0.717242 0.982471
vt 0.717242 0.888816
vt 0.807167 0.888816
vt 0.807167 0.982471
vt 0.716012 0.981756
vt 0.716012 0.889531
vt 0.808236 0.889531
vt 0.808236 0.981756
vt 0.811281 0.982471
vt 0.811281 0.888817
vt 0.901206 0.888817
vt 0.901207 0.982471
vt 0.810051 0.981756
vt 0.810051 0.889532
vt 0.902275 0.889532
vt 0.902275 0.981756
vt 0.857738 0.793011
vt 0.857738 0.699357
vt 0.901894 0.699357
vt 0.901894 0.793011
vt 0.813583 0.793011
vt 0.813583 0.699357
vt 0.903851 0.700072
vt 0.903851 0.792297
vt 0.811626 0.700072
vt 0.811626 0.792297
vt 0.842928 0.887741
vt 0.842928 0.794087
vt 0.887084 0.794087
vt 0.887084 0.887741
vt 0.798772 0.887741
vt 0.798772 0.794087
vt 0.889040 0.794802
vt 0.889040 0.887026
vt 0.796816 0.794802
vt 0.796816 0.887026
vt 0.453790 0.765728
vt 0.453790 0.748300
vt 0.760421 0.748300
vt 0.765175 0.765728
vt 0.142405 0.765728
vt 0.147158 0.748300
vt 0.453790 0.123826
vt 0.760421 0.123826
vt 0.784014 0.753148
vt 0.778973 0.760687
vt 0.123565 0.753148
vt 0.128606 0.760687
vt 0.147158 0.123826
vt 0.453790 0.105280
vt 0.765175 0.105280
vt 0.784014 0.118995
vt 0.123565 0.118995
vt 0.142405 0.105280
vt 0.778973 0.110321
vt 0.128606 0.110321
vt 0.981002 0.796558
vt 0.937520 0.796558
vt 0.937520 0.794087
vt 0.981676 0.794087
vt 0.981002 0.885111
vt 0.937520 0.885111
vt 0.894039 0.796558
vt 0.893365 0.794087
vt 0.984348 0.795871
vt 0.983633 0.794802
vt 0.937520 0.887741
vt 0.981676 0.887741
vt 0.894039 0.885111
vt 0.984348 0.885796
vt 0.891408 0.794802
vt 0.890693 0.795871
vt 0.893365 0.887741
vt 0.983633 0.887026
vt 0.890693 0.885796
vt 0.891408 0.887026
vt 0.019941 0.001992
vt 0.024581 0.001992
vt 0.024581 0.998008
vt 0.019941 0.998008
vt 0.038820 0.998008
vt 0.030927 0.998008
vt 0.030927 0.001992
vt 0.038820 0.001992
vt 0.045260 0.001992
vt 0.049900 0.001992
vt 0.049900 0.998008
vt 0.045260 0.998008
vt 0.057406 0.001992
vt 0.057406 0.998008
vt 0.064913 0.001992
vt 0.064913 0.998008
vt 0.069552 0.001992
vt 0.069552 0.998008
vt 0.075719 0.001992
vt 0.083612 0.001992
vt 0.083612 0.998008
vt 0.075719 0.998008
vt 0.000289 0.001992
vt 0.004928 0.001992
vt 0.004928 0.998008
vt 0.000289 0.998008
vt 0.012435 0.001992
vt 0.012435 0.998008
vt 0.090052 0.010816
vt 0.094692 0.004431
vt 0.102198 0.014763
vt 0.090052 0.018709
vt 0.094692 0.025095
vt 0.102198 0.027534
vt 0.109705 0.025095
vt 0.114344 0.018709
vt 0.114344 0.010816
vt 0.109705 0.004431
vt 0.102198 0.001992
vt 0.140163 0.004431
vt 0.144803 0.010816
vt 0.132657 0.014763
vt 0.144803 0.018709
vt 0.140163 0.025095
vt 0.132657 0.027534
vt 0.125150 0.025095
vt 0.120511 0.018709
vt 0.120511 0.010816
vt 0.125150 0.004431
vt 0.132657 0.001992
vn -0.000000 -0.007722 0.999970
vn 0.000000 -0.000211 1.000000
vn -0.000445 -0.000227 1.000000
vn -0.000000 -0.007359 0.999973
vn 0.000000 1.000000 0.000000
vn 0.000000 1.000000 0.000000
vn 0.015301 0.999883 0.000000
vn 0.015301 0.999883 0.000000
vn -0.000445 -0.000227 -1.000000
vn 0.000000 -0.000211 -1.000000
vn 0.000000 -0.007722 -0.999970
vn 0.000000 -0.007359 -0.999973
vn 0.000000 -1.000000 0.000000
vn 0.000000 -1.000000 0.000000
vn 0.015301 -0.999883 0.000000
vn 0.015301 -0.999883 0.000000
vn 0.999970 0.007723 0.000000
vn 0.999970 0.007723 0.000000
vn 0.831269 0.555870 0.000000
vn 0.831269 0.555870 0.000000
vn -0.999970 0.007723 0.000000
vn -0.999970 0.007723 0.000000
vn -0.831268 0.555872 0.000000
vn -0.831268 0.555872 0.000000
vn -0.015301 -0.999883 0.000000
vn -0.015301 -0.999883 0.000000
vn 0.000445 -0.000227 -1.000000
vn -0.000000 -0.007359 -0.999973
vn -0.015301 0.999883 0.000000
vn -0.015301 0.999883 0.000000
vn 0.000000 -0.007359 0.999973
vn 0.000445 -0.000227 1.000000
vn -0.343146 -0.939282 0.000000
vn -0.343146 -0.939282 0.000000
vn -0.000000 -0.000000 -1.000000
vn 0.005628 -0.000000 -0.999984
vn -0.343146 0.939282 0.000000
vn -0.343146 0.939282 0.000000
vn 0.005628 -0.000000 0.999984
vn 0.000000 -0.000000 1.000000
vn -0.005628 -0.000000 0.999984
vn 0.000000 -0.000000 1.000000
vn 0.343147 0.939282 0.000000
vn 0.343147 0.939282 0.000000
vn -0.005628 -0.000000 -0.999984
vn 0.000000 -0.000000 -1.000000
vn 0.343147 -0.939282 0.000000
vn 0.343147 -0.939282 0.000000
vn 0.005617 0.000000 0.999984
vn 0.000444 0.000224 1.000000
vn 0.000000 0.000211 1.000000
vn -0.000444 0.000224 1.000000
vn -0.005617 0.000000 0.999984
vn 0.999970 -0.007717 0.000000
vn 0.999970 -0.007717 0.000000
vn -0.005617 0.000000 -0.999984
vn -0.000444 0.000224 -1.000000
vn 0.000000 0.000211 -1.000000
vn 0.000444 0.000224 -1.000000
vn 0.005617 0.000000 -0.999984
vn -0.999970 -0.007717 0.000000
vn -0.999970 -0.007717 0.000000
vn 0.000000 0.000000 1.000000
vn 0.000000 0.006915 0.999976
vn 0.000000 0.007257 0.999974
vn 0.000000 0.006915 0.999976
vn 0.000000 0.000000 1.000000
vn 0.864592 -0.502474 0.000008
vn 0.864592 -0.502474 0.000008
vn 0.000000 0.006914 -0.999976
vn 0.000000 0.000000 -1.000000
vn 0.000000 0.007257 -0.999974
vn 0.000000 0.006914 -0.999976
vn 0.000000 0.000000 -1.000000
vn -0.864591 -0.502476 0.000008
vn -0.864591 -0.502476 0.000008
vn 0.587785 0.000000 -0.809017
vn 0.587785 0.000000 -0.809017
vn 0.587785 0.000000 -0.809017
vn 0.587785 0.000000 -0.809017
vn -0.000000 0.000000 -1.000000
vn -0.000000 0.000000 -1.000000
vn -0.000000 0.000000 -1.000000
vn -0.000000 0.000000 -1.000000
vn -0.587785 0.000000 -0.809017
vn -0.587785 0.000000 -0.809017
vn -0.587785 0.000000 -0.809017
vn -0.587785 0.000000 -0.809017
vn -0.951057 0.000000 -0.309017
vn -0.951057 0.000000 -0.309017
vn -0.951057 0.000000 -0.309017
vn -0.951057 0.000000 -0.309017
vn -0.951057 0.000000 0.309017
vn -0.951057 0.000000 0.309017
vn -0.951057 0.000000 0.309017
vn -0.951057 0.000000 0.309017
vn -0.587785 0.000000 0.809017
vn -0.587785 0.000000 0.809017
vn -0.587785 0.000000 0.809017
vn -0.587785 0.000000 0.809017
vn 0.000000 0.000000 1.000000
vn 0.000000 0.000000 1.000000
vn 0.000000 0.000000 1.000000
vn 0.000000 0.000000 1.000000
vn 0.587785 0.000000 0.809017
vn 0.587785 0.000000 0.809017
vn 0.587785 0.000000 0.809017
vn 0.587785 0.000000 0.809017
vn 0.951057 0.000000 0.309017
vn 0.951057 0.000000 0.309017
vn 0.951057 0.000000 0.309017
vn 0.951057 0.000000 0.309017
vn 0.951057 0.000000 -0.309017
vn 0.951057 0.000000 -0.309017
vn 0.951057 0.000000 -0.309017
vn 0.951057 0.000000 -0.309017
vn 0.000000 -1.000000 0.000002
vn 0.000000 -1.000000 0.000000
vn 0.000000 -1.000000 -0.000000
vn 0.000000 -1.000000 0.000002
vn 0.000000 -1.000000 0.000000
vn 0.000000 -1.000000 0.000000
vn 0.000000 -1.000000 -0.000002
vn 0.000000 -1.000000 -0.000002
vn 0.000000 -1.000000 0.000000
vn 0.000000 -1.000000 0.000000
vn 0.000000 -1.000000 0.000000
vn 0.000000 1.000000 0.000000
vn 0.000000 1.000000 0.000002
vn 0.000000 1.000000 0.000000
vn 0.000000 1.000000 0.000000
vn 0.000000 1.000000 -0.000002
vn 0.000000 1.000000 0.000000
vn 0.000000 1.000000 0.000000
vn 0.000000 1.000000 0.000000
vn 0.000000 1.000000 0.000000
vn 0.000000 1.000000 0.000000
vn 0.000000 1.000000 0.000000
s 1
g pCube13
usemtl initialShadingGroup
f 12/37/1 23/38/2 24/39/3 18/40/4
s 2
f 11/17/5 12/18/6 18/19/7 19/20/8
s 3
f 27/57/9 28/58/10 11/59/11 19/60/12
s 4
f 9/27/13 10/28/14 20/29/15 17/30/16
s 5
f 25/4/17 26/3/18 6/7/19 4/8/20
s 6
f 30/12/21 21/11/22 3/15/23 5/16/24
s 4
f 13/31/25 14/32/26 10/28/14 9/27/13
s 3
f 28/58/10 29/63/27 15/64/28 11/59/11
s 2
f 15/21/29 16/22/30 12/18/6 11/17/5
s 1
f 16/41/31 22/42/32 23/38/2 12/37/1
s 4
f 7/35/33 14/32/26 13/31/25 1/36/34
s 3
f 5/71/35 15/64/28 29/63/27 30/72/36
s 2
f 3/25/37 16/22/30 15/21/29 5/26/38
s 1
f 21/47/39 22/42/32 16/41/31 3/48/40
f 18/40/4 24/39/3 25/45/41 4/46/42
s 2
f 19/20/8 18/19/7 4/23/43 6/24/44
s 3
f 26/65/45 27/57/9 19/60/12 6/66/46
s 4
f 17/30/16 20/29/15 8/33/47 2/34/48
s 1
f 31/53/49 32/49/50 22/42/32 21/47/39
f 23/38/2 22/42/32 32/49/50 33/43/51
f 24/39/3 23/38/2 33/43/51 34/44/52
f 25/45/41 24/39/3 34/44/52 35/52/53
s 5
f 35/1/54 36/2/55 26/3/18 25/4/17
s 3
f 36/70/56 37/61/57 27/57/9 26/65/45
f 37/61/57 38/62/58 28/58/10 27/57/9
f 38/62/58 39/69/59 29/63/27 28/58/10
f 30/72/36 29/63/27 39/69/59 40/75/60
s 6
f 40/9/61 31/10/62 21/11/22 30/12/21
s 1
f 1/56/63 13/54/64 32/49/50 31/53/49
f 33/43/51 32/49/50 13/54/64 9/50/65
f 34/44/52 33/43/51 9/50/65 17/51/66
f 35/52/53 34/44/52 17/51/66 2/55/67
s 5
f 2/5/68 8/6/69 36/2/55 35/1/54
s 3
f 20/68/70 37/61/57 36/70/56 8/74/71
f 10/67/72 38/62/58 37/61/57 20/68/70
f 14/73/73 39/69/59 38/62/58 10/67/72
f 40/75/60 39/69/59 14/73/73 7/76/74
s 6
f 7/13/75 1/14/76 31/10/62 40/9/61
s off
f 41/77/77 42/78/78 52/79/79 51/80/80
f 42/81/81 43/82/82 53/83/83 52/84/84
f 43/85/85 44/86/86 54/87/87 53/88/88
f 44/86/89 45/89/90 55/90/91 54/87/92
f 45/89/93 46/91/94 56/92/95 55/90/96
f 46/91/97 47/93/98 57/94/99 56/92/100
f 47/95/101 48/96/102 58/97/103 57/98/104
f 48/99/105 49/100/106 59/101/107 58/102/108
f 49/100/109 50/103/110 60/104/111 59/101/112
f 50/103/113 41/77/114 51/80/115 60/104/116
s 7
f 42/105/117 41/106/118 61/107/119
f 43/108/120 42/105/117 61/107/119
f 44/109/121 43/108/120 61/107/119
f 45/110/122 44/109/121 61/107/119
f 46/111/123 45/110/122 61/107/119
f 47/112/124 46/111/123 61/107/119
f 48/113/125 47/112/124 61/107/119
f 49/114/126 48/113/125 61/107/119
f 50/115/127 49/114/126 61/107/119
f 41/106/118 50/115/127 61/107/119
s 8
f 51/116/128 52/117/129 62/118/130
f 52/117/129 53/119/131 62/118/130
f 53/119/131 54/120/132 62/118/130
f 54/120/132 55/121/133 62/118/130
f 55/121/133 56/122/134 62/118/130
f 56/122/134 57/123/135 62/118/130
f 57/123/135 58/124/136 62/118/130
f 58/124/136 59/125/137 62/118/130
f 59/125/137 60/126/138 62/118/130
f 60/126/138 51/116/128 62/118/130
