# This file uses centimeters as units for non-parametric coordinates.

mtllib T_Module.mtl
g default
v -294.918945 -90.000000 -100.754494
v -98.306313 -3.749094 -100.754494
v -294.918945 -3.749094 -100.754494
v -98.306313 -3.749094 95.858124
v -294.918945 -3.749094 95.858124
v -294.918945 -90.000000 95.858124
v -196.612625 -3.749094 -100.754494
v -196.612625 -3.749094 95.858124
v -277.533936 -3.749094 -100.754494
v -277.533936 -3.749094 95.858124
v -115.691284 -3.749094 -100.754494
v -115.691284 -3.749094 95.858124
v -106.998810 -3.749094 -100.754494
v -106.998810 -3.749094 95.858124
v -286.226440 -3.749094 -100.754494
v -286.226440 -3.749094 95.858124
v -98.306313 0.531144 -100.754494
v -106.998810 0.531144 -100.754494
v -106.998810 0.531144 95.858124
v -98.306313 0.531144 95.858124
v -286.226440 0.531144 -100.754494
v -286.226440 0.531144 95.858124
v -294.918945 0.531144 -100.754494
v -294.918945 0.531144 95.858124
v -98.306313 -3.749094 87.165634
v -98.306313 0.531144 87.165634
v -106.998810 0.531144 87.165634
v -106.998810 -3.749094 87.165634
v -115.691284 -3.749094 87.165634
v -196.612625 -3.749094 87.165634
v -277.533936 -3.749094 87.165634
v -286.226440 -3.749094 87.165634
v -286.226440 0.531144 87.165634
v -294.918945 0.531144 87.165634
v -294.918945 -3.749094 87.165634
v -294.918915 -90.000000 87.165642
v -98.306305 -3.749094 -92.061996
v -98.306305 0.531144 -92.061996
v -106.998810 0.531144 -92.061996
v -106.998810 -3.749094 -92.061996
v -115.691284 -3.749094 -92.061996
v -196.612610 -3.749094 -92.061996
v -277.533936 -3.749094 -92.061996
v -286.226440 -3.749094 -92.061996
v -286.226440 0.531144 -92.061996
v -294.918915 0.531144 -92.061996
v -294.918915 -3.749094 -92.061996
v -294.918945 -90.000000 -92.061996
vt 0.813776 0.154610
vt 0.807480 0.154610
vt 0.807480 0.148314
vt 0.813776 0.148314
vt 0.798439 0.154610
vt 0.735965 0.154610
vt 0.735965 0.148314
vt 0.798439 0.148314
vt 0.665114 0.148463
vt 0.665114 0.154759
vt 0.606500 0.154759
vt 0.606500 0.148463
vt 0.600204 0.154759
vt 0.600204 0.148463
vt 0.723728 0.148463
vt 0.723728 0.154759
vt 0.730025 0.148463
vt 0.730025 0.154759
vt 0.704107 0.940046
vt 0.710403 0.940046
vt 0.710403 0.946342
vt 0.704107 0.946342
vt 0.720416 0.940052
vt 0.720416 0.946348
vt 0.717316 0.946348
vt 0.717316 0.940052
vt 0.587967 0.154759
vt 0.584867 0.154759
vt 0.584867 0.148463
vt 0.587967 0.148463
vt 0.726751 0.946348
vt 0.726751 0.940052
vt 0.729852 0.940052
vt 0.729852 0.946348
vt 0.575826 0.290876
vt 0.575826 0.284580
vt 0.578926 0.284580
vt 0.578926 0.290876
vt 0.736187 0.946348
vt 0.736187 0.940052
vt 0.739287 0.940052
vt 0.739287 0.946348
vt 0.748722 0.940052
vt 0.748722 0.946348
vt 0.745622 0.946348
vt 0.745622 0.940052
vt 0.801540 0.154610
vt 0.801540 0.148314
vt 0.755058 0.946348
vt 0.755058 0.940052
vt 0.758158 0.940052
vt 0.758158 0.946348
vt 0.575826 0.154759
vt 0.578926 0.154759
vt 0.813776 0.284431
vt 0.807480 0.284431
vt 0.587967 0.284579
vt 0.584867 0.284579
vt 0.730025 0.284579
vt 0.723728 0.284579
vt 0.665114 0.284579
vt 0.606500 0.284579
vt 0.600204 0.284579
vt 0.798439 0.284431
vt 0.735965 0.284431
vt 0.575826 0.148463
vt 0.578926 0.148463
vt 0.813776 0.290727
vt 0.807480 0.290727
vt 0.584867 0.290876
vt 0.587967 0.290876
vt 0.730025 0.290876
vt 0.723728 0.290876
vt 0.665114 0.290876
vt 0.606500 0.290876
vt 0.600204 0.290876
vt 0.767593 0.946348
vt 0.764493 0.946348
vt 0.764493 0.940052
vt 0.767593 0.940052
vt 0.773928 0.940052
vt 0.780224 0.940052
vt 0.780224 0.946348
vt 0.773928 0.946348
vt 0.798439 0.290727
vt 0.801540 0.284431
vt 0.801540 0.290727
vt 0.735965 0.290727
vt 0.593908 0.284579
vt 0.593908 0.154759
vt 0.790238 0.946348
vt 0.787138 0.946348
vt 0.787138 0.940052
vt 0.790238 0.940052
vt 0.799673 0.941782
vt 0.796573 0.941782
vt 0.796573 0.935485
vt 0.799673 0.935485
vn 0.000000 1.000000 0.000000
vn 0.000000 1.000000 0.000000
vn 0.000000 1.000000 0.000000
vn 0.000000 1.000000 0.000000
vn -1.000000 0.000000 -0.000002
vn -1.000000 0.000000 -0.000002
vn -1.000000 0.000000 -0.000002
vn -1.000000 0.000000 -0.000002
vn 0.000000 1.000000 0.000000
vn 0.000000 1.000000 0.000000
vn 0.000000 1.000000 0.000000
vn 0.000000 1.000000 0.000000
vn 0.000000 1.000000 0.000000
vn 0.000000 1.000000 0.000000
vn 0.000000 1.000000 0.000000
vn 0.000000 1.000000 0.000000
vn 0.000000 1.000000 0.000000
vn 0.000000 1.000000 0.000000
vn 0.000000 1.000000 0.000000
vn 0.000000 1.000000 0.000000
vn 0.000000 1.000000 0.000000
vn 0.000000 1.000000 0.000000
vn 0.000000 1.000000 0.000000
vn 0.000000 1.000000 0.000000
vn 0.000000 1.000000 0.000000
vn 0.000000 1.000000 0.000000
vn 0.000000 1.000000 0.000000
vn 0.000000 1.000000 0.000000
vn 0.000000 0.000000 -1.000000
vn 0.000000 0.000000 -1.000000
vn 0.000000 0.000000 -1.000000
vn 0.000000 0.000000 -1.000000
vn -1.000000 0.000000 0.000000
vn -1.000000 0.000000 0.000000
vn -1.000000 0.000000 0.000000
vn -1.000000 0.000000 0.000000
vn 0.000000 0.000000 1.000000
vn 0.000000 0.000000 1.000000
vn 0.000000 0.000000 1.000000
vn 0.000000 0.000000 1.000000
vn 1.000000 0.000000 0.000000
vn 1.000000 0.000000 0.000000
vn 1.000000 0.000000 0.000000
vn 1.000000 0.000000 0.000000
vn 1.000000 0.000000 0.000000
vn 1.000000 0.000000 0.000000
vn 1.000000 0.000000 0.000000
vn 1.000000 0.000000 0.000000
vn 0.000000 0.000000 -1.000000
vn 0.000000 0.000000 -1.000000
vn 0.000000 0.000000 -1.000000
vn 0.000000 0.000000 -1.000000
vn -1.000000 0.000000 0.000000
vn -1.000000 0.000000 0.000000
vn -1.000000 0.000000 0.000000
vn -1.000000 0.000000 0.000000
vn 0.000000 0.000000 1.000000
vn 0.000000 0.000000 1.000000
vn 0.000000 0.000000 1.000000
vn 0.000000 0.000000 1.000000
vn 1.000000 0.000000 0.000000
vn 1.000000 0.000000 0.000000
vn 1.000000 0.000000 0.000000
vn 1.000000 0.000000 0.000000
vn 0.000000 1.000000 0.000000
vn 0.000000 1.000000 0.000000
vn 0.000000 1.000000 0.000000
vn 0.000000 1.000000 0.000000
vn -1.000000 0.000000 0.000000
vn -1.000000 0.000000 0.000000
vn -1.000000 0.000000 0.000000
vn -1.000000 0.000000 0.000000
vn 0.000000 1.000000 0.000000
vn 0.000000 1.000000 0.000000
vn 0.000000 1.000000 0.000000
vn 0.000000 1.000000 0.000000
vn 0.000000 1.000000 0.000000
vn 0.000000 1.000000 0.000000
vn 0.000000 1.000000 0.000000
vn 0.000000 1.000000 0.000000
vn 0.000000 1.000000 0.000000
vn 0.000000 1.000000 0.000000
vn 0.000000 1.000000 0.000000
vn 0.000000 1.000000 0.000000
vn 0.000000 1.000000 0.000000
vn 0.000000 1.000000 0.000000
vn 0.000000 1.000000 0.000000
vn 0.000000 1.000000 0.000000
vn -1.000000 -0.000000 0.000000
vn -1.000000 -0.000000 0.000000
vn -1.000000 -0.000000 0.000000
vn -1.000000 -0.000000 0.000000
vn 1.000000 0.000000 -0.000001
vn 1.000000 0.000000 -0.000001
vn 1.000000 0.000000 -0.000001
vn 1.000000 0.000000 -0.000001
vn 0.000000 1.000000 -0.000000
vn 0.000000 1.000000 -0.000000
vn 0.000000 1.000000 -0.000000
vn 0.000000 1.000000 -0.000000
vn -1.000000 0.000000 0.000000
vn -1.000000 0.000000 0.000000
vn -1.000000 0.000000 0.000000
vn -1.000000 0.000000 0.000000
vn 0.000000 1.000000 -0.000000
vn 0.000000 1.000000 -0.000000
vn 0.000000 1.000000 -0.000000
vn 0.000000 1.000000 -0.000000
vn 0.000000 1.000000 -0.000000
vn 0.000000 1.000000 -0.000000
vn 0.000000 1.000000 -0.000000
vn 0.000000 1.000000 -0.000000
vn 0.000000 1.000000 -0.000000
vn 0.000000 1.000000 -0.000000
vn 0.000000 1.000000 -0.000000
vn 0.000000 1.000000 -0.000000
vn 0.000000 1.000000 -0.000000
vn 0.000000 1.000000 -0.000000
vn 0.000000 1.000000 -0.000000
vn 0.000000 1.000000 -0.000000
vn 1.000000 0.000000 0.000000
vn 1.000000 0.000000 0.000000
vn 1.000000 0.000000 0.000000
vn 1.000000 0.000000 0.000000
vn 0.000000 1.000000 0.000000
vn 0.000000 1.000000 0.000000
vn 0.000000 1.000000 0.000000
vn 0.000000 1.000000 0.000000
vn -1.000000 0.000000 0.000004
vn -1.000000 0.000000 0.000004
vn -1.000000 0.000000 0.000004
vn -1.000000 0.000000 0.000004
vn -1.000000 0.000000 0.000002
vn -1.000000 0.000000 0.000002
vn -1.000000 0.000000 0.000002
vn -1.000000 0.000000 0.000002
vn 0.000000 1.000000 0.000000
vn 0.000000 1.000000 0.000000
vn 0.000000 1.000000 0.000000
vn 0.000000 1.000000 0.000000
vn 0.000000 0.000000 -1.000000
vn 0.000000 0.000000 -1.000000
vn 0.000000 0.000000 -1.000000
vn 0.000000 0.000000 -1.000000
vn 0.000000 0.000000 1.000000
vn 0.000000 0.000000 1.000000
vn 0.000000 0.000000 1.000000
vn 0.000000 0.000000 1.000000
s off
g polySurface16
usemtl lambert3SG
f 26/1/1 27/2/2 19/3/3 20/4/4
f 35/5/5 36/6/6 6/7/7 5/8/8
f 8/9/9 30/10/10 31/11/11 10/12/12
f 10/12/13 31/11/14 32/13/15 16/14/16
f 12/15/17 29/16/18 30/10/19 8/9/20
f 14/17/21 28/18/22 29/16/23 12/15/24
f 22/19/25 33/20/26 34/21/27 24/22/28
f 2/23/29 13/24/30 18/25/31 17/26/32
f 27/27/33 28/28/34 14/29/35 19/30/36
f 14/31/37 4/32/38 20/33/39 19/34/40
f 4/35/41 25/36/42 26/37/43 20/38/44
f 16/39/45 32/40/46 33/41/47 22/42/48
f 15/43/49 3/44/50 23/45/51 21/46/52
f 34/47/53 35/5/54 5/8/55 24/48/56
f 5/49/57 16/50/58 22/51/59 24/52/60
f 26/37/61 25/36/62 37/53/63 38/54/64
f 38/55/65 39/56/66 27/2/67 26/1/68
f 39/57/69 40/58/70 28/28/71 27/27/72
f 29/16/73 28/18/74 40/59/75 41/60/76
f 30/10/77 29/16/78 41/60/79 42/61/80
f 31/11/81 30/10/82 42/61/83 43/62/84
f 32/13/85 31/11/86 43/62/87 44/63/88
f 47/64/89 48/65/90 36/6/91 35/5/92
f 38/54/93 37/53/94 2/66/95 17/67/96
f 17/68/97 18/69/98 39/56/99 38/55/100
f 13/70/101 40/58/102 39/57/103 18/71/104
f 41/60/105 40/59/106 13/72/107 11/73/108
f 42/61/109 41/60/110 11/73/111 7/74/112
f 43/62/113 42/61/114 7/74/115 9/75/116
f 44/63/117 43/62/118 9/75/119 15/76/120
f 45/77/121 44/78/122 15/79/123 21/80/124
f 46/81/125 45/82/126 21/83/127 23/84/128
f 3/85/129 47/64/130 46/86/131 23/87/132
f 1/88/133 48/65/134 47/64/135 3/85/136
f 47/89/137 35/90/138 32/13/139 44/63/140
f 35/91/141 34/92/142 33/93/143 32/94/144
f 46/95/145 47/96/146 44/97/147 45/98/148
