# This file uses centimeters as units for non-parametric coordinates.

mtllib DockStairs.mtl
g default
v -721.689941 -27.517267 86.281024
v -713.675171 -27.517267 86.281024
v -721.689941 -26.278788 86.281024
v -713.675171 -26.278788 86.281024
v -721.689941 -26.278788 39.656883
v -713.675171 -26.278788 39.656883
v -721.689941 -27.517267 39.656883
v -713.675171 -27.517267 39.656883
v -713.439880 -20.743895 86.281024
v -705.425110 -20.743895 86.281024
v -713.439880 -19.505415 86.281024
v -705.425110 -19.505415 86.281024
v -713.439880 -19.505415 39.656883
v -705.425110 -19.505415 39.656883
v -713.439880 -20.743895 39.656883
v -705.425110 -20.743895 39.656883
v -705.338074 -14.480801 86.281024
v -697.323303 -14.480801 86.281024
v -705.338074 -13.242321 86.281024
v -697.323303 -13.242321 86.281024
v -705.338074 -13.242321 39.656883
v -697.323303 -13.242321 39.656883
v -705.338074 -14.480801 39.656883
v -697.323303 -14.480801 39.656883
v -697.568054 -7.896173 86.281024
v -689.553284 -7.896173 86.281024
v -697.568054 -6.657692 86.281024
v -689.553284 -6.657692 86.281024
v -697.568054 -6.657692 39.656883
v -689.553284 -6.657692 39.656883
v -697.568054 -7.896173 39.656883
v -689.553284 -7.896173 39.656883
v -716.075500 -29.593945 87.243400
v -688.034485 -6.205159 87.243400
v -724.028992 -29.552628 87.243400
v -688.034424 -0.129170 87.243400
v -724.028992 -29.552628 86.281024
v -688.034424 -0.129170 86.281024
v -716.075500 -29.593945 86.281024
v -688.034485 -6.205159 86.281024
v -716.075500 -29.593945 39.656884
v -688.034485 -6.205159 39.656884
v -724.028992 -29.552628 39.656884
v -688.034424 -0.129170 39.656884
v -724.028992 -29.552628 38.694505
v -688.034424 -0.129170 38.694505
v -716.075500 -29.593945 38.694505
v -688.034485 -6.205159 38.694505
vt 0.138614 0.680870
vt 0.138614 0.001914
vt 0.148048 0.001914
vt 0.148048 0.680870
vt 0.154205 0.680870
vt 0.154205 0.001914
vt 0.163640 0.001914
vt 0.163640 0.680870
vt 0.306224 0.680870
vt 0.306224 0.001914
vt 0.315658 0.001914
vt 0.315658 0.680870
vt 0.321815 0.680870
vt 0.321815 0.001914
vt 0.331250 0.001914
vt 0.331250 0.680870
vt 0.473833 0.680870
vt 0.473833 0.001914
vt 0.483268 0.001914
vt 0.483268 0.680870
vt 0.489425 0.680870
vt 0.489425 0.001914
vt 0.498859 0.001914
vt 0.498859 0.680870
vt 0.641443 0.680870
vt 0.641443 0.001914
vt 0.650878 0.001914
vt 0.650878 0.680870
vt 0.657035 0.680870
vt 0.657035 0.001914
vt 0.666469 0.001914
vt 0.666469 0.680870
vt 0.292217 0.863033
vt 0.306231 0.863033
vt 0.306231 0.909319
vt 0.292217 0.909319
vt 0.306231 0.684861
vt 0.292217 0.684861
vt 0.272067 0.863033
vt 0.286082 0.863033
vt 0.286082 0.909319
vt 0.272067 0.909319
vt 0.286082 0.684861
vt 0.272067 0.684861
vt 0.001992 0.001914
vt 0.063047 0.001914
vt 0.063047 0.680870
vt 0.001992 0.680870
vt 0.070400 0.001914
vt 0.131455 0.001914
vt 0.131455 0.680870
vt 0.070400 0.680870
vt 0.169797 0.001914
vt 0.230852 0.001914
vt 0.230852 0.680870
vt 0.169797 0.680870
vt 0.238010 0.001914
vt 0.299065 0.001914
vt 0.299065 0.680870
vt 0.238010 0.680870
vt 0.337406 0.001914
vt 0.398462 0.001914
vt 0.398462 0.680870
vt 0.337406 0.680870
vt 0.405620 0.001914
vt 0.466675 0.001914
vt 0.466675 0.680870
vt 0.405620 0.680870
vt 0.505017 0.001914
vt 0.566072 0.001914
vt 0.566072 0.680870
vt 0.505017 0.680870
vt 0.573230 0.001914
vt 0.634285 0.001914
vt 0.634285 0.680870
vt 0.573230 0.680870
vt 0.087061 0.684861
vt 0.101076 0.684861
vt 0.101076 0.745449
vt 0.087061 0.745449
vt 0.066911 0.684861
vt 0.080926 0.684861
vt 0.080926 0.745449
vt 0.066911 0.745449
vt 0.216198 0.745916
vt 0.216198 0.684861
vt 0.225633 0.684861
vt 0.225633 0.745916
vt 0.200628 0.745916
vt 0.200628 0.684861
vt 0.210063 0.684861
vt 0.210063 0.745916
vt 0.185059 0.745916
vt 0.185059 0.684861
vt 0.194493 0.684861
vt 0.194493 0.745916
vt 0.169489 0.745916
vt 0.169489 0.684861
vt 0.178923 0.684861
vt 0.178923 0.745916
vt 0.153919 0.745916
vt 0.153919 0.684861
vt 0.163354 0.684861
vt 0.163354 0.745916
vt 0.138350 0.745916
vt 0.138350 0.684861
vt 0.147785 0.684861
vt 0.147785 0.745916
vt 0.122780 0.745916
vt 0.122780 0.684861
vt 0.132214 0.684861
vt 0.132214 0.745916
vt 0.107211 0.745916
vt 0.107211 0.684861
vt 0.116645 0.684861
vt 0.116645 0.745916
vt 0.672627 0.215526
vt 0.850798 0.001915
vt 0.897084 0.001914
vt 0.672941 0.276114
vt 0.997693 0.554305
vt 0.773551 0.280106
vt 0.819837 0.280106
vt 0.998008 0.493717
vt 0.542959 0.898473
vt 0.721130 0.684862
vt 0.767416 0.684861
vt 0.543273 0.959061
vt 0.536509 0.959061
vt 0.312367 0.684861
vt 0.358652 0.684862
vt 0.536824 0.898473
vt 0.265932 0.684861
vt 0.265932 0.909004
vt 0.251918 0.909004
vt 0.251918 0.684861
vt 0.245782 0.684861
vt 0.245782 0.909004
vt 0.231768 0.909004
vt 0.231768 0.684861
vn 0.000000 0.000000 1.000000
vn 0.000000 0.000000 1.000000
vn 0.000000 0.000000 1.000000
vn 0.000000 0.000000 1.000000
vn 0.000000 1.000000 0.000000
vn 0.000000 1.000000 0.000000
vn 0.000000 1.000000 0.000000
vn 0.000000 1.000000 0.000000
vn 0.000000 0.000000 -1.000000
vn 0.000000 0.000000 -1.000000
vn 0.000000 0.000000 -1.000000
vn 0.000000 0.000000 -1.000000
vn 0.000000 -1.000000 0.000000
vn 0.000000 -1.000000 0.000000
vn 0.000000 -1.000000 0.000000
vn 0.000000 -1.000000 0.000000
vn 1.000000 0.000000 0.000000
vn 1.000000 0.000000 0.000000
vn 1.000000 0.000000 0.000000
vn 1.000000 0.000000 0.000000
vn -1.000000 0.000000 0.000000
vn -1.000000 0.000000 0.000000
vn -1.000000 0.000000 0.000000
vn -1.000000 0.000000 0.000000
vn 0.000000 0.000000 1.000000
vn 0.000000 0.000000 1.000000
vn 0.000000 0.000000 1.000000
vn 0.000000 0.000000 1.000000
vn 0.000000 1.000000 0.000000
vn 0.000000 1.000000 0.000000
vn 0.000000 1.000000 0.000000
vn 0.000000 1.000000 0.000000
vn 0.000000 0.000000 -1.000000
vn 0.000000 0.000000 -1.000000
vn 0.000000 0.000000 -1.000000
vn 0.000000 0.000000 -1.000000
vn 0.000000 -1.000000 0.000000
vn 0.000000 -1.000000 0.000000
vn 0.000000 -1.000000 0.000000
vn 0.000000 -1.000000 0.000000
vn 1.000000 0.000000 0.000000
vn 1.000000 0.000000 0.000000
vn 1.000000 0.000000 0.000000
vn 1.000000 0.000000 0.000000
vn -1.000000 0.000000 0.000000
vn -1.000000 0.000000 0.000000
vn -1.000000 0.000000 0.000000
vn -1.000000 0.000000 0.000000
vn 0.000000 0.000000 1.000000
vn 0.000000 0.000000 1.000000
vn 0.000000 0.000000 1.000000
vn 0.000000 0.000000 1.000000
vn 0.000000 1.000000 0.000000
vn 0.000000 1.000000 0.000000
vn 0.000000 1.000000 0.000000
vn 0.000000 1.000000 0.000000
vn 0.000000 0.000000 -1.000000
vn 0.000000 0.000000 -1.000000
vn 0.000000 0.000000 -1.000000
vn 0.000000 0.000000 -1.000000
vn 0.000000 -1.000000 0.000000
vn 0.000000 -1.000000 0.000000
vn 0.000000 -1.000000 0.000000
vn 0.000000 -1.000000 0.000000
vn 1.000000 0.000000 0.000000
vn 1.000000 0.000000 0.000000
vn 1.000000 0.000000 0.000000
vn 1.000000 0.000000 0.000000
vn -1.000000 0.000000 0.000000
vn -1.000000 0.000000 0.000000
vn -1.000000 0.000000 0.000000
vn -1.000000 0.000000 0.000000
vn 0.000000 0.000000 1.000000
vn 0.000000 0.000000 1.000000
vn 0.000000 0.000000 1.000000
vn 0.000000 0.000000 1.000000
vn 0.000000 1.000000 0.000000
vn 0.000000 1.000000 0.000000
vn 0.000000 1.000000 0.000000
vn 0.000000 1.000000 0.000000
vn 0.000000 0.000000 -1.000000
vn 0.000000 0.000000 -1.000000
vn 0.000000 0.000000 -1.000000
vn 0.000000 0.000000 -1.000000
vn 0.000000 -1.000000 0.000000
vn 0.000000 -1.000000 0.000000
vn 0.000000 -1.000000 0.000000
vn 0.000000 -1.000000 0.000000
vn 1.000000 0.000000 0.000000
vn 1.000000 0.000000 0.000000
vn 1.000000 0.000000 0.000000
vn 1.000000 0.000000 0.000000
vn -1.000000 0.000000 0.000000
vn -1.000000 0.000000 0.000000
vn -1.000000 0.000000 0.000000
vn -1.000000 0.000000 0.000000
vn -0.000001 0.000000 1.000000
vn -0.000001 0.000000 1.000000
vn -0.000001 0.000000 1.000000
vn -0.000001 0.000000 1.000000
vn -0.632895 0.774238 0.000000
vn -0.632895 0.774238 0.000000
vn -0.632895 0.774238 0.000000
vn -0.632895 0.774238 0.000000
vn 0.000000 0.000000 -1.000000
vn 0.000000 0.000000 -1.000000
vn 0.000000 0.000000 -1.000000
vn 0.000000 0.000000 -1.000000
vn 0.640528 -0.767935 0.000000
vn 0.640528 -0.767935 0.000000
vn 0.640528 -0.767935 0.000000
vn 0.640528 -0.767935 0.000000
vn 1.000000 -0.000011 0.000000
vn 1.000000 -0.000011 0.000000
vn 1.000000 -0.000011 0.000000
vn 1.000000 -0.000011 0.000000
vn -0.005195 -0.999987 0.000000
vn -0.005195 -0.999987 0.000000
vn -0.005195 -0.999987 0.000000
vn -0.005195 -0.999987 0.000000
vn -0.000000 0.000000 1.000000
vn -0.000000 0.000000 1.000000
vn -0.000000 0.000000 1.000000
vn -0.000000 0.000000 1.000000
vn -0.632895 0.774238 0.000000
vn -0.632895 0.774238 0.000000
vn -0.632895 0.774238 0.000000
vn -0.632895 0.774238 0.000000
vn 0.000000 0.000000 -1.000000
vn 0.000000 0.000000 -1.000000
vn 0.000000 0.000000 -1.000000
vn 0.000000 0.000000 -1.000000
vn 0.640528 -0.767935 0.000000
vn 0.640528 -0.767935 0.000000
vn 0.640528 -0.767935 0.000000
vn 0.640528 -0.767935 0.000000
vn 1.000000 -0.000011 0.000000
vn 1.000000 -0.000011 0.000000
vn 1.000000 -0.000011 0.000000
vn 1.000000 -0.000011 0.000000
vn -0.005195 -0.999987 0.000000
vn -0.005195 -0.999987 0.000000
vn -0.005195 -0.999987 0.000000
vn -0.005195 -0.999987 0.000000
s off
g DockStairs
usemtl initialShadingGroup
f 1/85/1 2/86/2 4/87/3 3/88/4
f 3/45/5 4/46/6 6/47/7 5/48/8
f 5/89/9 6/90/10 8/91/11 7/92/12
f 7/49/13 8/50/14 2/51/15 1/52/16
f 2/1/17 8/2/18 6/3/19 4/4/20
f 7/5/21 1/6/22 3/7/23 5/8/24
f 9/93/25 10/94/26 12/95/27 11/96/28
f 11/53/29 12/54/30 14/55/31 13/56/32
f 13/97/33 14/98/34 16/99/35 15/100/36
f 15/57/37 16/58/38 10/59/39 9/60/40
f 10/9/41 16/10/42 14/11/43 12/12/44
f 15/13/45 9/14/46 11/15/47 13/16/48
f 17/101/49 18/102/50 20/103/51 19/104/52
f 19/61/53 20/62/54 22/63/55 21/64/56
f 21/105/57 22/106/58 24/107/59 23/108/60
f 23/65/61 24/66/62 18/67/63 17/68/64
f 18/17/65 24/18/66 22/19/67 20/20/68
f 23/21/69 17/22/70 19/23/71 21/24/72
f 25/109/73 26/110/74 28/111/75 27/112/76
f 27/69/77 28/70/78 30/71/79 29/72/80
f 29/113/81 30/114/82 32/115/83 31/116/84
f 31/73/85 32/74/86 26/75/87 25/76/88
f 26/25/89 32/26/90 30/27/91 28/28/92
f 31/29/93 25/30/94 27/31/95 29/32/96
f 33/117/97 34/118/98 36/119/99 35/120/100
f 35/133/101 36/134/102 38/135/103 37/136/104
f 37/121/105 38/122/106 40/123/107 39/124/108
f 39/37/109 40/34/110 34/33/111 33/38/112
f 34/33/113 40/34/114 38/35/115 36/36/116
f 39/77/117 33/78/118 35/79/119 37/80/120
f 41/125/121 42/126/122 44/127/123 43/128/124
f 43/137/125 44/138/126 46/139/127 45/140/128
f 45/129/129 46/130/130 48/131/131 47/132/132
f 47/43/133 48/40/134 42/39/135 41/44/136
f 42/39/137 48/40/138 46/41/139 44/42/140
f 47/81/141 41/82/142 43/83/143 45/84/144
