# This file uses centimeters as units for non-parametric coordinates.

mtllib DockRail_Long.mtl
g default
v -677.072083 -0.568894 88.316620
v -679.069092 -0.568894 88.299194
v -680.493469 -0.568894 89.698967
v -680.510925 -0.568894 91.695968
v -679.111145 -0.568894 93.120392
v -677.114136 -0.568894 93.137817
v -675.689758 -0.568894 91.738044
v -675.672302 -0.568894 89.741043
v -677.072083 34.723610 88.316620
v -679.069092 34.723610 88.299194
v -680.493469 34.723610 89.698967
v -680.510925 34.723610 91.695968
v -679.111145 34.723610 93.120392
v -677.114136 34.723610 93.137817
v -675.689758 34.723610 91.738044
v -675.672302 34.723610 89.741043
v -678.091614 -0.568894 90.718506
v -678.091614 34.723610 90.718506
v -683.118042 15.859951 90.098091
v -495.694275 15.859951 90.098091
v -683.118042 15.859951 91.631942
v -495.694275 15.859951 91.631942
v -683.118042 19.809023 91.631942
v -495.694275 19.809023 91.631942
v -683.118042 19.809023 90.098091
v -495.694275 19.809023 90.098091
v -615.509521 -0.568894 88.316620
v -617.506531 -0.568894 88.299194
v -618.930908 -0.568894 89.698967
v -618.948364 -0.568894 91.695968
v -617.548584 -0.568894 93.120392
v -615.551575 -0.568894 93.137817
v -614.127197 -0.568894 91.738044
v -614.109741 -0.568894 89.741043
v -615.509521 34.723610 88.316620
v -617.506531 34.723610 88.299194
v -618.930908 34.723610 89.698967
v -618.948364 34.723610 91.695968
v -617.548584 34.723610 93.120392
v -615.551575 34.723610 93.137817
v -614.127197 34.723610 91.738044
v -614.109741 34.723610 89.741043
v -616.529053 -0.568894 90.718506
v -616.529053 34.723610 90.718506
v -559.297424 -0.568894 88.316620
v -561.294434 -0.568894 88.299194
v -562.718811 -0.568894 89.698967
v -562.736267 -0.568894 91.695968
v -561.336487 -0.568894 93.120392
v -559.339478 -0.568894 93.137817
v -557.915100 -0.568894 91.738044
v -557.897644 -0.568894 89.741043
v -559.297424 34.723610 88.316620
v -561.294434 34.723610 88.299194
v -562.718811 34.723610 89.698967
v -562.736267 34.723610 91.695968
v -561.336487 34.723610 93.120392
v -559.339478 34.723610 93.137817
v -557.915100 34.723610 91.738044
v -557.897644 34.723610 89.741043
v -560.316956 -0.568894 90.718506
v -560.316956 34.723610 90.718506
v -500.390228 -0.568894 88.316620
v -502.387238 -0.568894 88.299194
v -503.811646 -0.568894 89.698967
v -503.829071 -0.568894 91.695968
v -502.429291 -0.568894 93.120392
v -500.432281 -0.568894 93.137817
v -499.007874 -0.568894 91.738044
v -498.990448 -0.568894 89.741043
v -500.390228 34.723610 88.316620
v -502.387238 34.723610 88.299194
v -503.811646 34.723610 89.698967
v -503.829071 34.723610 91.695968
v -502.429291 34.723610 93.120392
v -500.432281 34.723610 93.137817
v -499.007874 34.723610 91.738044
v -498.990448 34.723610 89.741043
v -501.409760 -0.568894 90.718506
v -501.409760 34.723610 90.718506
v -683.118042 34.723610 93.296791
v -494.029419 34.723610 93.296791
v -683.118042 36.721630 93.296791
v -494.029419 36.721630 93.296791
v -683.118042 36.721630 86.793724
v -494.029419 36.721630 86.793724
v -683.118042 34.723610 86.793724
v -494.029419 34.723610 86.793724
vt 0.223755 0.001992
vt 0.234274 0.001992
vt 0.234274 0.187894
vt 0.223755 0.187894
vt 0.241777 0.001992
vt 0.241777 0.187894
vt 0.216382 0.001992
vt 0.216382 0.187894
vt 0.273367 0.001992
vt 0.283886 0.001992
vt 0.283886 0.187894
vt 0.273367 0.187894
vt 0.291389 0.001992
vt 0.291389 0.187894
vt 0.265994 0.001992
vt 0.265994 0.187894
vt 0.894220 0.001992
vt 0.894220 0.022794
vt 0.886140 0.022794
vt 0.886140 0.001992
vt 0.899238 0.022794
vt 0.899238 0.001992
vt 0.907317 0.001992
vt 0.907317 0.022794
vt 0.322979 0.001992
vt 0.333498 0.001992
vt 0.333498 0.187894
vt 0.322979 0.187894
vt 0.341001 0.001992
vt 0.341001 0.187894
vt 0.315605 0.001992
vt 0.315605 0.187894
vt 0.372590 0.001992
vt 0.383109 0.001992
vt 0.383109 0.187894
vt 0.372590 0.187894
vt 0.390613 0.001992
vt 0.390613 0.187894
vt 0.365217 0.001992
vt 0.365217 0.187894
vt 0.422202 0.001992
vt 0.432721 0.001992
vt 0.432721 0.187894
vt 0.422202 0.187894
vt 0.440224 0.001992
vt 0.440224 0.187894
vt 0.414829 0.001992
vt 0.414829 0.187894
vt 0.471814 0.001992
vt 0.482333 0.001992
vt 0.482333 0.187894
vt 0.471814 0.187894
vt 0.489836 0.001992
vt 0.489836 0.187894
vt 0.464440 0.001992
vt 0.464440 0.187894
vt 0.521425 0.001992
vt 0.531945 0.001992
vt 0.531945 0.187894
vt 0.521425 0.187894
vt 0.539448 0.001992
vt 0.539448 0.187894
vt 0.514052 0.001992
vt 0.514052 0.187894
vt 0.571037 0.001992
vt 0.581556 0.001992
vt 0.581556 0.187894
vt 0.571037 0.187894
vt 0.589059 0.001992
vt 0.589059 0.187894
vt 0.563664 0.001992
vt 0.563664 0.187894
vt 0.595557 0.036247
vt 0.595557 0.001992
vt 0.606082 0.001992
vt 0.606082 0.036247
vt 0.613276 0.036247
vt 0.613276 0.001992
vt 0.623800 0.001992
vt 0.623800 0.036247
vt 0.630994 0.019885
vt 0.631086 0.009366
vt 0.643738 0.014736
vt 0.638589 0.001992
vt 0.638367 0.027388
vt 0.649108 0.002084
vt 0.648886 0.027479
vt 0.656481 0.009587
vt 0.656389 0.020106
vt 0.688283 0.009366
vt 0.688375 0.019885
vt 0.675631 0.014736
vt 0.681001 0.027388
vt 0.680780 0.001992
vt 0.670482 0.027479
vt 0.670261 0.002084
vt 0.662979 0.020106
vt 0.662887 0.009587
vt 0.117158 0.989238
vt 0.117158 0.001992
vt 0.125238 0.001992
vt 0.125238 0.989238
vt 0.157911 0.989238
vt 0.157911 0.001992
vt 0.165990 0.001992
vt 0.165990 0.989238
vt 0.694780 0.019884
vt 0.694872 0.009365
vt 0.707524 0.014736
vt 0.702375 0.001992
vt 0.702154 0.027388
vt 0.712894 0.002084
vt 0.712673 0.027479
vt 0.720268 0.009587
vt 0.720176 0.020106
vt 0.752069 0.009365
vt 0.752161 0.019884
vt 0.739417 0.014736
vt 0.744788 0.027388
vt 0.744566 0.001992
vt 0.734268 0.027479
vt 0.734047 0.002084
vt 0.726765 0.020106
vt 0.726674 0.009587
vt 0.758567 0.019885
vt 0.758659 0.009366
vt 0.771311 0.014736
vt 0.766162 0.001992
vt 0.765940 0.027388
vt 0.776681 0.002084
vt 0.776460 0.027479
vt 0.784054 0.009587
vt 0.783963 0.020106
vt 0.815856 0.009366
vt 0.815947 0.019885
vt 0.803204 0.014736
vt 0.808574 0.027388
vt 0.808352 0.001992
vt 0.798055 0.027479
vt 0.797833 0.002084
vt 0.790552 0.020106
vt 0.790460 0.009587
vt 0.822354 0.019885
vt 0.822445 0.009366
vt 0.835097 0.014736
vt 0.829948 0.001992
vt 0.829727 0.027388
vt 0.840468 0.002084
vt 0.840246 0.027479
vt 0.847841 0.009587
vt 0.847749 0.020106
vt 0.879642 0.009366
vt 0.879734 0.019885
vt 0.866990 0.014736
vt 0.872361 0.027388
vt 0.872139 0.001992
vt 0.861842 0.027479
vt 0.861620 0.002084
vt 0.854339 0.020106
vt 0.854247 0.009587
vt 0.017935 0.998008
vt 0.017935 0.001992
vt 0.052190 0.001992
vt 0.052190 0.998008
vt 0.076406 0.998008
vt 0.076406 0.001992
vt 0.110660 0.001992
vt 0.110660 0.998008
vt 0.209182 0.187894
vt 0.198663 0.187894
vt 0.198663 0.001992
vt 0.209182 0.001992
vt 0.248275 0.001992
vt 0.258794 0.001992
vt 0.258794 0.187894
vt 0.248275 0.187894
vt 0.131333 0.989238
vt 0.131333 0.001992
vt 0.152135 0.001992
vt 0.152135 0.989238
vt 0.172086 0.989238
vt 0.172086 0.001992
vt 0.192887 0.001992
vt 0.192887 0.989238
vt 0.308406 0.187894
vt 0.297887 0.187894
vt 0.297887 0.001992
vt 0.308406 0.001992
vt 0.347498 0.001992
vt 0.358018 0.001992
vt 0.358018 0.187894
vt 0.347498 0.187894
vt 0.407629 0.187894
vt 0.397110 0.187894
vt 0.397110 0.001992
vt 0.407629 0.001992
vt 0.446722 0.001992
vt 0.457241 0.001992
vt 0.457241 0.187894
vt 0.446722 0.187894
vt 0.506853 0.187894
vt 0.496334 0.187894
vt 0.496334 0.001992
vt 0.506853 0.001992
vt 0.545945 0.001992
vt 0.556464 0.001992
vt 0.556464 0.187894
vt 0.545945 0.187894
vt 0.001811 0.998008
vt 0.001811 0.001992
vt 0.012336 0.001992
vt 0.012336 0.998008
vt 0.058687 0.998008
vt 0.058687 0.001992
vt 0.069212 0.001992
vt 0.069212 0.998008
vn 0.008725 0.000000 -0.999962
vn 0.008725 0.000000 -0.999962
vn 0.008725 0.000000 -0.999962
vn 0.008725 0.000000 -0.999962
vn -0.700921 0.000000 -0.713239
vn -0.700921 0.000000 -0.713239
vn -0.700921 0.000000 -0.713239
vn -0.700921 0.000000 -0.713239
vn -0.999962 0.000000 -0.008741
vn -0.999962 0.000000 -0.008741
vn -0.999962 0.000000 -0.008741
vn -0.999962 0.000000 -0.008741
vn -0.713250 0.000000 0.700910
vn -0.713250 0.000000 0.700910
vn -0.713250 0.000000 0.700910
vn -0.713250 0.000000 0.700910
vn -0.008725 0.000000 0.999962
vn -0.008725 0.000000 0.999962
vn -0.008725 0.000000 0.999962
vn -0.008725 0.000000 0.999962
vn 0.700919 0.000000 0.713241
vn 0.700919 0.000000 0.713241
vn 0.700919 0.000000 0.713241
vn 0.700919 0.000000 0.713241
vn 0.999962 0.000000 0.008741
vn 0.999962 0.000000 0.008741
vn 0.999962 0.000000 0.008741
vn 0.999962 0.000000 0.008741
vn 0.713250 0.000000 -0.700910
vn 0.713250 0.000000 -0.700910
vn 0.713250 0.000000 -0.700910
vn 0.713250 0.000000 -0.700910
vn 0.000000 -1.000000 0.000000
vn 0.000000 -1.000000 0.000000
vn 0.000000 -1.000000 0.000000
vn 0.000000 -1.000000 0.000000
vn 0.000000 -1.000000 0.000000
vn 0.000000 -1.000000 -0.000000
vn 0.000000 -1.000000 -0.000000
vn 0.000000 -1.000000 0.000000
vn 0.000000 -1.000000 -0.000000
vn 0.000000 1.000000 -0.000001
vn 0.000000 1.000000 -0.000001
vn 0.000000 1.000000 -0.000000
vn 0.000000 1.000000 0.000000
vn 0.000000 1.000000 0.000000
vn 0.000000 1.000000 0.000001
vn 0.000000 1.000000 0.000001
vn 0.000000 1.000000 0.000000
vn 0.000000 1.000000 0.000000
vn 0.000000 -1.000000 0.000000
vn 0.000000 -1.000000 0.000000
vn 0.000000 -1.000000 0.000000
vn 0.000000 -1.000000 0.000000
vn 0.000000 0.000000 1.000000
vn 0.000000 0.000000 1.000000
vn 0.000000 0.000000 1.000000
vn 0.000000 0.000000 1.000000
vn 0.000000 1.000000 0.000000
vn 0.000000 1.000000 0.000000
vn 0.000000 1.000000 0.000000
vn 0.000000 1.000000 0.000000
vn 0.000000 0.000000 -1.000000
vn 0.000000 0.000000 -1.000000
vn 0.000000 0.000000 -1.000000
vn 0.000000 0.000000 -1.000000
vn 1.000000 0.000000 0.000000
vn 1.000000 0.000000 0.000000
vn 1.000000 0.000000 0.000000
vn 1.000000 0.000000 0.000000
vn -1.000000 0.000000 0.000000
vn -1.000000 0.000000 0.000000
vn -1.000000 0.000000 0.000000
vn -1.000000 0.000000 0.000000
vn 0.008725 0.000000 -0.999962
vn 0.008725 0.000000 -0.999962
vn 0.008725 0.000000 -0.999962
vn 0.008725 0.000000 -0.999962
vn -0.700921 0.000000 -0.713239
vn -0.700921 0.000000 -0.713239
vn -0.700921 0.000000 -0.713239
vn -0.700921 0.000000 -0.713239
vn -0.999962 0.000000 -0.008741
vn -0.999962 0.000000 -0.008741
vn -0.999962 0.000000 -0.008741
vn -0.999962 0.000000 -0.008741
vn -0.713250 0.000000 0.700910
vn -0.713250 0.000000 0.700910
vn -0.713250 0.000000 0.700910
vn -0.713250 0.000000 0.700910
vn -0.008725 0.000000 0.999962
vn -0.008725 0.000000 0.999962
vn -0.008725 0.000000 0.999962
vn -0.008725 0.000000 0.999962
vn 0.700919 0.000000 0.713241
vn 0.700919 0.000000 0.713241
vn 0.700919 0.000000 0.713241
vn 0.700919 0.000000 0.713241
vn 0.999962 0.000000 0.008741
vn 0.999962 0.000000 0.008741
vn 0.999962 0.000000 0.008741
vn 0.999962 0.000000 0.008741
vn 0.713250 0.000000 -0.700910
vn 0.713250 0.000000 -0.700910
vn 0.713250 0.000000 -0.700910
vn 0.713250 0.000000 -0.700910
vn 0.000000 -1.000000 0.000000
vn 0.000000 -1.000000 -0.000000
vn 0.000000 -1.000000 -0.000000
vn 0.000000 -1.000000 0.000000
vn 0.000000 -1.000000 0.000000
vn 0.000000 -1.000000 -0.000000
vn 0.000000 -1.000000 -0.000000
vn 0.000000 -1.000000 0.000000
vn 0.000000 -1.000000 -0.000000
vn 0.000000 1.000000 -0.000001
vn 0.000000 1.000000 -0.000001
vn 0.000000 1.000000 0.000000
vn 0.000000 1.000000 0.000000
vn 0.000000 1.000000 0.000000
vn 0.000000 1.000000 0.000001
vn 0.000000 1.000000 0.000001
vn 0.000000 1.000000 0.000000
vn 0.000000 1.000000 0.000000
vn 0.008725 0.000000 -0.999962
vn 0.008725 0.000000 -0.999962
vn 0.008725 0.000000 -0.999962
vn 0.008725 0.000000 -0.999962
vn -0.700921 0.000000 -0.713239
vn -0.700921 0.000000 -0.713239
vn -0.700921 0.000000 -0.713239
vn -0.700921 0.000000 -0.713239
vn -0.999962 0.000000 -0.008741
vn -0.999962 0.000000 -0.008741
vn -0.999962 0.000000 -0.008741
vn -0.999962 0.000000 -0.008741
vn -0.713250 0.000000 0.700910
vn -0.713250 0.000000 0.700910
vn -0.713250 0.000000 0.700910
vn -0.713250 0.000000 0.700910
vn -0.008725 0.000000 0.999962
vn -0.008725 0.000000 0.999962
vn -0.008725 0.000000 0.999962
vn -0.008725 0.000000 0.999962
vn 0.700919 0.000000 0.713241
vn 0.700919 0.000000 0.713241
vn 0.700919 0.000000 0.713241
vn 0.700919 0.000000 0.713241
vn 0.999962 0.000000 0.008741
vn 0.999962 0.000000 0.008741
vn 0.999962 0.000000 0.008741
vn 0.999962 0.000000 0.008741
vn 0.713250 0.000000 -0.700910
vn 0.713250 0.000000 -0.700910
vn 0.713250 0.000000 -0.700910
vn 0.713250 0.000000 -0.700910
vn 0.000000 -1.000000 0.000000
vn 0.000000 -1.000000 0.000000
vn 0.000000 -1.000000 0.000000
vn 0.000000 -1.000000 0.000000
vn 0.000000 -1.000000 0.000000
vn 0.000000 -1.000000 -0.000000
vn 0.000000 -1.000000 -0.000000
vn 0.000000 -1.000000 0.000000
vn 0.000000 -1.000000 -0.000000
vn 0.000000 1.000000 -0.000001
vn 0.000000 1.000000 -0.000001
vn 0.000000 1.000000 0.000000
vn 0.000000 1.000000 0.000000
vn 0.000000 1.000000 0.000000
vn 0.000000 1.000000 0.000001
vn 0.000000 1.000000 0.000001
vn 0.000000 1.000000 0.000000
vn 0.000000 1.000000 0.000000
vn 0.008725 0.000000 -0.999962
vn 0.008725 0.000000 -0.999962
vn 0.008725 0.000000 -0.999962
vn 0.008725 0.000000 -0.999962
vn -0.700913 0.000000 -0.713247
vn -0.700913 0.000000 -0.713247
vn -0.700913 0.000000 -0.713247
vn -0.700913 0.000000 -0.713247
vn -0.999962 0.000000 -0.008726
vn -0.999962 0.000000 -0.008726
vn -0.999962 0.000000 -0.008726
vn -0.999962 0.000000 -0.008726
vn -0.713250 0.000000 0.700910
vn -0.713250 0.000000 0.700910
vn -0.713250 0.000000 0.700910
vn -0.713250 0.000000 0.700910
vn -0.008725 0.000000 0.999962
vn -0.008725 0.000000 0.999962
vn -0.008725 0.000000 0.999962
vn -0.008725 0.000000 0.999962
vn 0.700911 0.000000 0.713248
vn 0.700911 0.000000 0.713248
vn 0.700911 0.000000 0.713248
vn 0.700911 0.000000 0.713248
vn 0.999962 0.000000 0.008726
vn 0.999962 0.000000 0.008726
vn 0.999962 0.000000 0.008726
vn 0.999962 0.000000 0.008726
vn 0.713250 0.000000 -0.700910
vn 0.713250 0.000000 -0.700910
vn 0.713250 0.000000 -0.700910
vn 0.713250 0.000000 -0.700910
vn 0.000000 -1.000000 0.000000
vn 0.000000 -1.000000 -0.000000
vn 0.000000 -1.000000 -0.000000
vn 0.000000 -1.000000 0.000000
vn 0.000000 -1.000000 0.000000
vn 0.000000 -1.000000 -0.000000
vn 0.000000 -1.000000 -0.000000
vn 0.000000 -1.000000 0.000000
vn 0.000000 -1.000000 -0.000000
vn 0.000000 1.000000 -0.000001
vn 0.000000 1.000000 -0.000001
vn 0.000000 1.000000 0.000000
vn 0.000000 1.000000 0.000000
vn 0.000000 1.000000 0.000000
vn 0.000000 1.000000 0.000001
vn 0.000000 1.000000 0.000001
vn 0.000000 1.000000 0.000000
vn 0.000000 1.000000 0.000000
vn 0.000000 0.000000 1.000000
vn 0.000000 0.000000 1.000000
vn 0.000000 0.000000 1.000000
vn 0.000000 0.000000 1.000000
vn 0.000000 1.000000 0.000000
vn 0.000000 1.000000 0.000000
vn 0.000000 1.000000 0.000000
vn 0.000000 1.000000 0.000000
vn 0.000000 0.000000 -1.000000
vn 0.000000 0.000000 -1.000000
vn 0.000000 0.000000 -1.000000
vn 0.000000 0.000000 -1.000000
vn 0.000000 -1.000000 0.000000
vn 0.000000 -1.000000 0.000000
vn 0.000000 -1.000000 0.000000
vn 0.000000 -1.000000 0.000000
vn 1.000000 0.000000 0.000000
vn 1.000000 0.000000 0.000000
vn 1.000000 0.000000 0.000000
vn 1.000000 0.000000 0.000000
vn -1.000000 0.000000 0.000000
vn -1.000000 0.000000 0.000000
vn -1.000000 0.000000 0.000000
vn -1.000000 0.000000 0.000000
s off
g DockRailLong
usemtl initialShadingGroup
f 1/169/1 2/170/2 10/171/3 9/172/4
f 2/7/5 3/1/6 11/4/7 10/8/8
f 3/1/9 4/2/10 12/3/11 11/4/12
f 4/2/13 5/5/14 13/6/15 12/3/16
f 5/173/17 6/174/18 14/175/19 13/176/20
f 6/15/21 7/9/22 15/12/23 14/16/24
f 7/9/25 8/10/26 16/11/27 15/12/28
f 8/10/29 1/13/30 9/14/31 16/11/32
s 1
f 2/81/33 1/82/34 17/83/35
f 3/85/36 2/81/33 17/83/35
f 4/87/37 3/85/36 17/83/35
f 5/89/38 4/87/37 17/83/35
f 6/88/39 5/89/38 17/83/35
f 7/86/40 6/88/39 17/83/35
f 8/84/41 7/86/40 17/83/35
f 1/82/34 8/84/41 17/83/35
s 2
f 9/90/42 10/91/43 18/92/44
f 10/91/43 11/93/45 18/92/44
f 11/93/45 12/95/46 18/92/44
f 12/95/46 13/97/47 18/92/44
f 13/97/47 14/98/48 18/92/44
f 14/98/48 15/96/49 18/92/44
f 15/96/49 16/94/50 18/92/44
f 16/94/50 9/90/42 18/92/44
s off
f 19/99/51 20/100/52 22/101/53 21/102/54
f 21/177/55 22/178/56 24/179/57 23/180/58
f 23/103/59 24/104/60 26/105/61 25/106/62
f 25/181/63 26/182/64 20/183/65 19/184/66
f 20/17/67 26/18/68 24/19/69 22/20/70
f 25/21/71 19/22/72 21/23/73 23/24/74
f 27/185/75 28/186/76 36/187/77 35/188/78
f 28/31/79 29/25/80 37/28/81 36/32/82
f 29/25/83 30/26/84 38/27/85 37/28/86
f 30/26/87 31/29/88 39/30/89 38/27/90
f 31/189/91 32/190/92 40/191/93 39/192/94
f 32/39/95 33/33/96 41/36/97 40/40/98
f 33/33/99 34/34/100 42/35/101 41/36/102
f 34/34/103 27/37/104 35/38/105 42/35/106
s 3
f 28/107/107 27/108/108 43/109/109
f 29/111/110 28/107/107 43/109/109
f 30/113/111 29/111/110 43/109/109
f 31/115/112 30/113/111 43/109/109
f 32/114/113 31/115/112 43/109/109
f 33/112/114 32/114/113 43/109/109
f 34/110/115 33/112/114 43/109/109
f 27/108/108 34/110/115 43/109/109
s 4
f 35/116/116 36/117/117 44/118/118
f 36/117/117 37/119/119 44/118/118
f 37/119/119 38/121/120 44/118/118
f 38/121/120 39/123/121 44/118/118
f 39/123/121 40/124/122 44/118/118
f 40/124/122 41/122/123 44/118/118
f 41/122/123 42/120/124 44/118/118
f 42/120/124 35/116/116 44/118/118
s off
f 45/193/125 46/194/126 54/195/127 53/196/128
f 46/47/129 47/41/130 55/44/131 54/48/132
f 47/41/133 48/42/134 56/43/135 55/44/136
f 48/42/137 49/45/138 57/46/139 56/43/140
f 49/197/141 50/198/142 58/199/143 57/200/144
f 50/55/145 51/49/146 59/52/147 58/56/148
f 51/49/149 52/50/150 60/51/151 59/52/152
f 52/50/153 45/53/154 53/54/155 60/51/156
s 5
f 46/125/157 45/126/158 61/127/159
f 47/129/160 46/125/157 61/127/159
f 48/131/161 47/129/160 61/127/159
f 49/133/162 48/131/161 61/127/159
f 50/132/163 49/133/162 61/127/159
f 51/130/164 50/132/163 61/127/159
f 52/128/165 51/130/164 61/127/159
f 45/126/158 52/128/165 61/127/159
s 6
f 53/134/166 54/135/167 62/136/168
f 54/135/167 55/137/169 62/136/168
f 55/137/169 56/139/170 62/136/168
f 56/139/170 57/141/171 62/136/168
f 57/141/171 58/142/172 62/136/168
f 58/142/172 59/140/173 62/136/168
f 59/140/173 60/138/174 62/136/168
f 60/138/174 53/134/166 62/136/168
s off
f 63/201/175 64/202/176 72/203/177 71/204/178
f 64/63/179 65/57/180 73/60/181 72/64/182
f 65/57/183 66/58/184 74/59/185 73/60/186
f 66/58/187 67/61/188 75/62/189 74/59/190
f 67/205/191 68/206/192 76/207/193 75/208/194
f 68/71/195 69/65/196 77/68/197 76/72/198
f 69/65/199 70/66/200 78/67/201 77/68/202
f 70/66/203 63/69/204 71/70/205 78/67/206
s 7
f 64/143/207 63/144/208 79/145/209
f 65/147/210 64/143/207 79/145/209
f 66/149/211 65/147/210 79/145/209
f 67/151/212 66/149/211 79/145/209
f 68/150/213 67/151/212 79/145/209
f 69/148/214 68/150/213 79/145/209
f 70/146/215 69/148/214 79/145/209
f 63/144/208 70/146/215 79/145/209
s 8
f 71/152/216 72/153/217 80/154/218
f 72/153/217 73/155/219 80/154/218
f 73/155/219 74/157/220 80/154/218
f 74/157/220 75/159/221 80/154/218
f 75/159/221 76/160/222 80/154/218
f 76/160/222 77/158/223 80/154/218
f 77/158/223 78/156/224 80/154/218
f 78/156/224 71/152/216 80/154/218
s off
f 81/209/225 82/210/226 84/211/227 83/212/228
f 83/161/229 84/162/230 86/163/231 85/164/232
f 85/213/233 86/214/234 88/215/235 87/216/236
f 87/165/237 88/166/238 82/167/239 81/168/240
f 82/73/241 88/74/242 86/75/243 84/76/244
f 87/77/245 81/78/246 83/79/247 85/80/248
