# This file uses centimeters as units for non-parametric coordinates.

mtllib Corner_Module.mtl
g default
v -98.306313 -89.999992 292.470764
v -98.306313 -3.749097 292.470764
v -98.306313 -3.749097 95.858131
v -294.918945 -3.749097 292.470764
v -294.918945 -3.749097 95.858131
v -294.918945 -89.999992 292.470764
v -294.918945 -89.999992 95.858131
v -98.306313 -3.749097 194.164444
v -294.918945 -3.749097 194.164444
v -294.918945 -89.999992 194.164444
v -98.306320 -3.749097 113.243103
v -294.918945 -3.749097 113.243103
v -294.918945 -89.999992 113.243103
v -98.306313 -3.749097 275.085785
v -294.918976 -3.749097 275.085785
v -294.918976 -89.999992 275.085785
v -98.306313 -3.749097 283.778259
v -294.918945 -3.749097 283.778259
v -294.918945 -89.999992 283.778259
v -98.306313 -3.749097 104.550629
v -294.918976 -3.749097 104.550629
v -294.918976 -89.999992 104.550629
v -98.306313 0.531144 292.470764
v -98.306313 0.531144 283.778259
v -294.918945 0.531144 283.778259
v -294.918945 0.531144 292.470764
v -98.306313 0.531144 104.550629
v -98.306313 0.531144 95.858131
v -286.226440 -89.999992 292.470764
v -286.226440 -3.749097 292.470764
v -286.226440 0.531144 292.470764
v -286.226440 0.531144 283.778259
v -286.226440 -3.749097 283.778259
v -286.226440 -3.749097 275.085785
v -286.226440 -3.749097 194.164444
v -286.226440 -3.749097 113.243103
v -286.226440 -3.749097 104.550629
v -286.226440 -3.749097 95.858131
v -106.998833 -89.999992 292.470734
v -106.998817 -3.749097 292.470734
v -106.998817 0.531144 292.470734
v -106.998817 0.531144 283.778259
v -106.998817 -3.749097 283.778259
v -106.998817 -3.749097 275.085785
v -106.998817 -3.749097 194.164444
v -106.998825 -3.749097 113.243111
v -106.998825 -3.749097 104.550629
v -106.998825 0.531144 104.550629
v -106.998817 0.531144 95.858131
v -106.998817 -3.749097 95.858131
v -286.226440 0.531144 194.164444
v -294.918945 0.531144 194.164444
v -286.226440 0.531144 113.243103
v -294.918945 0.531144 113.243103
v -286.226440 0.531144 104.550629
v -294.918976 0.531144 104.550629
v -286.226440 0.531144 275.085785
v -294.918976 0.531144 275.085785
v -286.226440 0.531144 283.778259
v -294.918945 0.531144 283.778259
v -286.226440 0.531144 95.858131
v -294.918945 0.531144 95.858131
vt 0.306489 0.290870
vt 0.312785 0.290870
vt 0.312785 0.297166
vt 0.306489 0.297166
vt 0.297448 0.154753
vt 0.297448 0.161049
vt 0.234973 0.161049
vt 0.234973 0.154753
vt 0.163458 0.298504
vt 0.163458 0.292208
vt 0.225933 0.292208
vt 0.225933 0.298504
vt 0.713387 0.505928
vt 0.719683 0.505928
vt 0.719683 0.564542
vt 0.713387 0.564542
vt 0.234973 0.225960
vt 0.297448 0.225960
vt 0.297448 0.284574
vt 0.234973 0.284574
vt 0.719683 0.570839
vt 0.713387 0.570839
vt 0.297448 0.290870
vt 0.234973 0.290870
vt 0.713387 0.447314
vt 0.719683 0.447314
vt 0.234973 0.167345
vt 0.297448 0.167345
vt 0.713387 0.441018
vt 0.719683 0.441018
vt 0.297448 0.297166
vt 0.234973 0.297166
vt 0.843750 0.943566
vt 0.843750 0.937269
vt 0.846850 0.937269
vt 0.846850 0.943566
vt 0.154417 0.292208
vt 0.157518 0.292208
vt 0.157518 0.298504
vt 0.154417 0.298504
vt 0.300548 0.154753
vt 0.300548 0.161049
vt 0.229033 0.292208
vt 0.229033 0.298504
vt 0.853185 0.943565
vt 0.853185 0.937269
vt 0.856285 0.937269
vt 0.856285 0.943565
vt 0.163458 0.162387
vt 0.225933 0.162387
vt 0.229033 0.162387
vt 0.306489 0.161049
vt 0.312785 0.161049
vt 0.154417 0.162387
vt 0.157518 0.162387
vt 0.577626 0.583426
vt 0.571329 0.583426
vt 0.571329 0.453605
vt 0.577626 0.453605
vt 0.636240 0.583426
vt 0.636240 0.453605
vt 0.694854 0.583426
vt 0.694854 0.453605
vt 0.701150 0.583426
vt 0.701150 0.453605
vt 0.163458 0.156091
vt 0.225933 0.156091
vt 0.229033 0.156091
vt 0.306489 0.154753
vt 0.312785 0.154753
vt 0.157518 0.156091
vt 0.154417 0.156091
vt 0.571329 0.447309
vt 0.577626 0.447309
vt 0.636240 0.447309
vt 0.694854 0.447309
vt 0.701150 0.447309
vt 0.865721 0.943566
vt 0.862620 0.943566
vt 0.862620 0.937269
vt 0.865721 0.937269
vt 0.878352 0.943566
vt 0.872056 0.943566
vt 0.872056 0.937270
vt 0.878352 0.937270
vt 0.888365 0.937269
vt 0.888365 0.943566
vt 0.885265 0.943566
vt 0.885265 0.937269
vt 0.707446 0.453605
vt 0.707446 0.583426
vt 0.897801 0.943566
vt 0.894700 0.943566
vt 0.894700 0.937269
vt 0.897801 0.937269
vt 0.719683 0.577135
vt 0.713387 0.577135
vt 0.562289 0.518515
vt 0.562289 0.459901
vt 0.565389 0.459901
vt 0.565389 0.518515
vt 0.300548 0.225960
vt 0.300548 0.284574
vt 0.562289 0.453605
vt 0.565389 0.453605
vt 0.300548 0.290870
vt 0.562289 0.577129
vt 0.565389 0.577129
vt 0.300548 0.167345
vt 0.904136 0.943566
vt 0.904136 0.937270
vt 0.907236 0.937270
vt 0.907236 0.943566
vt 0.562289 0.583426
vt 0.565389 0.583426
vt 0.300548 0.161049
vt 0.562289 0.447309
vt 0.565389 0.447309
vt 0.916671 0.937270
vt 0.916671 0.943566
vt 0.913571 0.943566
vt 0.913571 0.937270
vt 0.300548 0.297166
vn 0.000000 1.000000 0.000000
vn 0.000000 1.000000 0.000000
vn 0.000000 1.000000 0.000000
vn 0.000000 1.000000 0.000000
vn -1.000000 0.000000 0.000000
vn -1.000000 0.000000 0.000000
vn -1.000000 0.000000 0.000000
vn -1.000000 0.000000 0.000000
vn 0.000000 0.000000 1.000000
vn 0.000000 0.000000 1.000000
vn 0.000000 0.000000 1.000000
vn 0.000000 0.000000 1.000000
vn 0.000000 1.000000 0.000000
vn 0.000000 1.000000 0.000000
vn 0.000000 1.000000 0.000000
vn 0.000000 1.000000 0.000000
vn -1.000000 0.000000 0.000000
vn -1.000000 0.000000 -0.000000
vn -1.000000 0.000000 0.000000
vn -1.000000 0.000000 0.000000
vn 0.000000 1.000000 0.000000
vn 0.000000 1.000000 0.000000
vn 0.000000 1.000000 0.000000
vn 0.000000 1.000000 0.000000
vn -1.000000 0.000000 0.000004
vn -1.000000 0.000000 -0.000000
vn -1.000000 0.000000 0.000004
vn 0.000000 1.000000 -0.000000
vn 0.000000 1.000000 -0.000000
vn 0.000000 1.000000 -0.000000
vn 0.000000 1.000000 -0.000000
vn -1.000000 0.000000 -0.000000
vn -1.000000 0.000000 0.000000
vn -1.000000 0.000000 -0.000000
vn 0.000000 1.000000 0.000000
vn 0.000000 1.000000 0.000000
vn 0.000000 1.000000 0.000000
vn 0.000000 1.000000 0.000000
vn -1.000000 0.000000 0.000004
vn -1.000000 0.000000 0.000004
vn -1.000000 0.000000 0.000004
vn -1.000000 0.000000 -0.000004
vn -1.000000 0.000000 -0.000004
vn -1.000000 0.000000 -0.000004
vn 1.000000 0.000000 0.000000
vn 1.000000 0.000000 0.000000
vn 1.000000 0.000000 0.000000
vn 1.000000 0.000000 0.000000
vn 0.000000 0.000000 -1.000000
vn 0.000000 0.000000 -1.000000
vn 0.000000 0.000000 -1.000000
vn 0.000000 0.000000 -1.000000
vn -1.000000 0.000000 0.000000
vn -1.000000 0.000000 0.000000
vn -1.000000 0.000000 0.000000
vn -1.000000 0.000000 0.000000
vn 0.000000 0.000000 1.000000
vn 0.000000 0.000000 1.000000
vn 0.000000 0.000000 1.000000
vn 0.000000 0.000000 1.000000
vn 1.000000 0.000000 0.000000
vn 1.000000 0.000000 0.000000
vn 1.000000 0.000000 0.000000
vn 1.000000 0.000000 0.000000
vn 0.000000 -0.000000 1.000000
vn 0.000000 -0.000000 1.000000
vn 0.000000 -0.000000 1.000000
vn 0.000000 -0.000000 1.000000
vn 0.000000 0.000000 1.000000
vn 0.000000 0.000000 1.000000
vn 0.000000 0.000000 1.000000
vn 0.000000 0.000000 1.000000
vn 0.000000 1.000000 0.000000
vn 0.000000 1.000000 0.000000
vn 0.000000 1.000000 0.000000
vn 0.000000 1.000000 0.000000
vn 0.000000 0.000000 -1.000000
vn 0.000000 0.000000 -1.000000
vn 0.000000 0.000000 -1.000000
vn 0.000000 0.000000 -1.000000
vn 0.000000 1.000000 0.000000
vn 0.000000 1.000000 0.000000
vn 0.000000 1.000000 0.000000
vn 0.000000 1.000000 0.000000
vn 0.000000 1.000000 0.000000
vn 0.000000 1.000000 0.000000
vn 0.000000 1.000000 0.000000
vn 0.000000 1.000000 0.000000
vn 0.000000 1.000000 0.000000
vn 0.000000 1.000000 0.000000
vn 0.000000 1.000000 0.000000
vn 0.000000 1.000000 0.000000
vn 0.000000 1.000000 0.000000
vn 0.000000 1.000000 0.000000
vn 0.000000 1.000000 0.000000
vn 0.000000 1.000000 0.000000
vn -0.000005 0.000000 1.000000
vn -0.000005 0.000000 1.000000
vn -0.000005 0.000000 1.000000
vn -0.000005 0.000000 1.000000
vn -0.000003 0.000000 1.000000
vn -0.000003 0.000000 1.000000
vn -0.000003 0.000000 1.000000
vn -0.000003 0.000000 1.000000
vn 0.000000 1.000000 0.000000
vn 0.000000 1.000000 0.000000
vn 0.000000 1.000000 0.000000
vn 0.000000 1.000000 0.000000
vn 0.000000 0.000000 -1.000000
vn 0.000000 0.000000 -1.000000
vn 0.000000 0.000000 -1.000000
vn 0.000000 0.000000 -1.000000
vn 0.000000 1.000000 0.000000
vn 0.000000 1.000000 0.000000
vn 0.000000 1.000000 0.000000
vn 0.000000 1.000000 0.000000
vn 0.000000 1.000000 0.000000
vn 0.000000 1.000000 0.000000
vn 0.000000 1.000000 0.000000
vn 0.000000 1.000000 0.000000
vn 0.000000 1.000000 0.000000
vn 0.000000 1.000000 0.000000
vn 0.000000 1.000000 0.000000
vn 0.000000 1.000000 0.000000
vn 0.000000 1.000000 -0.000000
vn 0.000000 1.000000 -0.000000
vn 0.000000 1.000000 -0.000000
vn 0.000000 1.000000 -0.000000
vn 0.000000 0.000000 1.000000
vn 0.000000 0.000000 1.000000
vn 0.000000 0.000000 1.000000
vn 0.000000 0.000000 1.000000
vn 0.000000 1.000000 0.000000
vn 0.000000 1.000000 0.000000
vn 0.000000 1.000000 0.000000
vn 0.000000 1.000000 0.000000
vn 0.000000 0.000000 -1.000000
vn 0.000000 0.000000 -1.000000
vn 0.000000 0.000000 -1.000000
vn 0.000000 0.000000 -1.000000
vn 0.000000 1.000000 -0.000000
vn 0.000000 1.000000 -0.000000
vn 0.000000 1.000000 -0.000000
vn 0.000000 1.000000 -0.000000
vn -1.000000 0.000000 -0.000001
vn -1.000000 0.000000 -0.000001
vn -1.000000 0.000000 -0.000001
vn -1.000000 0.000000 -0.000001
vn 0.000000 1.000000 0.000000
vn 0.000000 1.000000 0.000000
vn 0.000000 1.000000 0.000000
vn 0.000000 1.000000 0.000000
vn 1.000000 0.000000 0.000000
vn 1.000000 0.000000 0.000000
vn 1.000000 0.000000 0.000000
vn 1.000000 0.000000 0.000000
vn -1.000000 0.000000 -0.000000
vn -1.000000 0.000000 0.000000
vn 1.000000 0.000000 0.000000
vn 1.000000 0.000000 0.000000
vn -1.000000 0.000000 -0.000000
vn 1.000000 0.000000 0.000000
vn 1.000000 0.000000 0.000000
vn -1.000000 0.000000 0.000000
vn 0.000000 0.000000 1.000000
vn 0.000000 0.000000 1.000000
vn 0.000000 0.000000 1.000000
vn 0.000000 0.000000 1.000000
vn 1.000000 0.000000 0.000000
vn 1.000000 0.000000 0.000000
vn -1.000000 0.000000 0.000004
vn 1.000000 0.000000 0.000000
vn 1.000000 0.000000 0.000000
vn 0.000000 0.000000 -1.000000
vn 0.000000 0.000000 -1.000000
vn 0.000000 0.000000 -1.000000
vn 0.000000 0.000000 -1.000000
vn -1.000000 0.000000 -0.000004
s off
g polySurface56
usemtl lambert3SG
f 31/1/1 32/2/2 25/3/3 26/4/4
f 4/5/5 18/6/6 19/7/7 6/8/8
f 6/9/9 29/10/10 30/11/11 4/12/12
f 52/13/13 51/14/14 53/15/15 54/16/16
s 1
f 10/17/17 9/18/18 12/19/19 13/20/20
s off
f 54/16/21 53/15/22 55/21/23 56/22/24
s 1
f 13/20/25 12/19/19 21/23/26 22/24/27
s off
f 58/25/28 57/26/29 51/14/30 52/13/31
s 1
f 16/27/32 15/28/33 9/18/18 10/17/34
s off
f 60/29/35 59/30/36 57/26/37 58/25/38
s 1
f 19/7/39 18/6/40 15/28/33 16/27/41
f 22/24/42 21/23/26 5/31/43 7/32/44
s off
f 2/33/45 17/34/46 24/35/47 23/36/48
f 32/37/49 33/38/50 18/39/51 25/40/52
f 18/6/53 4/5/54 26/41/55 25/42/56
f 4/12/57 30/11/58 31/43/59 26/44/60
f 20/45/61 3/46/62 28/47/63 27/48/64
f 30/11/65 29/10/66 39/49/67 40/50/68
f 31/43/69 30/11/70 40/50/71 41/51/72
f 41/52/73 42/53/74 32/2/75 31/1/76
f 42/54/77 43/55/78 33/38/79 32/37/80
f 34/56/81 33/57/82 43/58/83 44/59/84
f 35/60/85 34/56/86 44/59/87 45/61/88
f 36/62/89 35/60/90 45/61/91 46/63/92
f 37/64/93 36/62/94 46/63/95 47/65/96
f 40/50/97 39/49/98 1/66/99 2/67/100
f 41/51/101 40/50/102 2/67/103 23/68/104
f 23/69/105 24/70/106 42/53/107 41/52/108
f 17/71/109 43/55/110 42/54/111 24/72/112
f 44/59/113 43/58/114 17/73/115 14/74/116
f 45/61/117 44/59/118 14/74/119 8/75/120
f 46/63/121 45/61/122 8/75/123 11/76/124
f 47/65/125 46/63/126 11/76/127 20/77/128
f 48/78/129 47/79/130 20/80/131 27/81/132
f 49/82/133 48/83/134 27/84/135 28/85/136
f 3/86/137 50/87/138 49/88/139 28/89/140
f 50/90/141 38/91/142 37/64/143 47/65/144
f 49/92/145 50/93/146 47/94/147 48/95/148
f 55/21/149 61/96/150 62/97/151 56/22/152
s 6
f 35/98/153 36/99/154 53/100/155 51/101/156
s 1
f 12/19/19 9/18/18 52/102/157 54/103/158
s 6
f 36/99/154 37/104/159 55/105/160 53/100/155
s 1
f 21/23/26 12/19/19 54/103/158 56/106/161
s 6
f 34/107/162 35/98/153 51/101/156 57/108/163
s 1
f 9/18/18 15/28/33 58/109/164 52/102/157
s off
f 18/110/165 33/111/166 59/112/167 60/113/168
s 6
f 33/114/169 34/107/162 57/108/163 59/115/170
s 1
f 15/28/33 18/6/40 60/116/171 58/109/164
s 6
f 37/104/159 38/117/172 61/118/173 55/105/160
s off
f 38/119/174 5/120/175 62/121/176 61/122/177
s 1
f 5/31/43 21/23/26 56/106/161 62/123/178
