# This file uses centimeters as units for non-parametric coordinates.

mtllib StraightModule.mtl
g default
v -98.306290 -90.000008 292.470764
v -98.306290 -3.749099 95.858131
v -98.306290 -3.749099 292.470764
v 98.306335 -3.749099 95.858131
v 98.306335 -3.749099 292.470764
v 98.306335 -90.000008 292.470764
v -98.306290 -3.749099 194.164429
v 98.306335 -3.749099 194.164429
v -98.306290 -3.749099 275.085785
v 98.306328 -3.749099 275.085785
v -98.306282 -3.749099 113.243103
v 98.306335 -3.749099 113.243103
v -98.306290 -3.749099 104.550621
v 98.306335 -3.749099 104.550621
v -98.306290 -3.749099 283.778259
v 98.306335 -3.749099 283.778259
v -98.306290 0.531139 95.858131
v -98.306290 0.531139 104.550621
v 98.306335 0.531139 104.550621
v 98.306335 0.531139 95.858131
v -98.306290 0.531139 283.778259
v 98.306335 0.531139 283.778259
v -98.306290 0.531139 292.470764
v 98.306335 0.531139 292.470764
vt 0.148477 0.298504
vt 0.142181 0.298504
vt 0.142181 0.156091
vt 0.148477 0.156091
vt 0.070665 0.298504
vt 0.070665 0.156091
vt 0.133140 0.156091
vt 0.133140 0.298504
vt 0.066839 0.302369
vt 0.066839 0.444782
vt 0.008225 0.444782
vt 0.008225 0.302369
vt 0.001929 0.444782
vt 0.001929 0.302369
vt 0.125453 0.302369
vt 0.125453 0.444782
vt 0.131749 0.302369
vt 0.131749 0.444782
vt 0.144283 0.302369
vt 0.144283 0.444782
vt 0.137986 0.444782
vt 0.137986 0.302369
vt 0.923006 0.943461
vt 0.923006 0.937165
vt 0.926107 0.937165
vt 0.926107 0.943461
vt 0.151196 0.444782
vt 0.151196 0.302369
vt 0.154296 0.302369
vt 0.154296 0.444782
vt 0.932442 0.943461
vt 0.932442 0.937165
vt 0.935542 0.937165
vt 0.935542 0.943461
vt 0.163731 0.302369
vt 0.163731 0.444782
vt 0.160631 0.444782
vt 0.160631 0.302369
vt 0.173167 0.302369
vt 0.173167 0.444782
vt 0.170067 0.444782
vt 0.170067 0.302369
vt 0.941877 0.943462
vt 0.941877 0.937165
vt 0.944977 0.937165
vt 0.944977 0.943462
vt 0.136240 0.156091
vt 0.136240 0.298504
vt 0.951312 0.943462
vt 0.951312 0.937165
vt 0.954413 0.937165
vt 0.954413 0.943462
vn 0.000000 1.000000 0.000000
vn 0.000000 1.000000 0.000000
vn 0.000000 1.000000 0.000000
vn 0.000000 1.000000 0.000000
vn 0.000000 0.000000 1.000000
vn 0.000000 0.000000 1.000000
vn 0.000000 0.000000 1.000000
vn 0.000000 0.000000 1.000000
vn 0.000000 1.000000 -0.000000
vn 0.000000 1.000000 -0.000000
vn 0.000000 1.000000 -0.000000
vn 0.000000 1.000000 -0.000000
vn 0.000000 1.000000 0.000000
vn 0.000000 1.000000 0.000000
vn 0.000000 1.000000 0.000000
vn 0.000000 1.000000 0.000000
vn 0.000000 1.000000 0.000000
vn 0.000000 1.000000 0.000000
vn 0.000000 1.000000 0.000000
vn 0.000000 1.000000 0.000000
vn 0.000000 1.000000 -0.000000
vn 0.000000 1.000000 -0.000000
vn 0.000000 1.000000 -0.000000
vn 0.000000 1.000000 -0.000000
vn 0.000000 1.000000 0.000000
vn 0.000000 1.000000 0.000000
vn 0.000000 1.000000 0.000000
vn 0.000000 1.000000 0.000000
vn -1.000000 0.000000 0.000000
vn -1.000000 0.000000 0.000000
vn -1.000000 0.000000 0.000000
vn -1.000000 0.000000 0.000000
vn 0.000000 0.000000 1.000000
vn 0.000000 0.000000 1.000000
vn 0.000000 0.000000 1.000000
vn 0.000000 0.000000 1.000000
vn 1.000000 0.000000 0.000000
vn 1.000000 0.000000 0.000000
vn 1.000000 0.000000 0.000000
vn 1.000000 0.000000 0.000000
vn 0.000000 0.000000 -1.000000
vn 0.000000 0.000000 -1.000000
vn 0.000000 0.000000 -1.000000
vn 0.000000 0.000000 -1.000000
vn 0.000000 0.000000 -1.000000
vn 0.000000 0.000000 -1.000000
vn 0.000000 0.000000 -1.000000
vn 0.000000 0.000000 -1.000000
vn -1.000000 0.000000 0.000000
vn -1.000000 0.000000 0.000000
vn -1.000000 0.000000 0.000000
vn -1.000000 0.000000 0.000000
vn 0.000000 0.000000 1.000000
vn 0.000000 0.000000 1.000000
vn 0.000000 0.000000 1.000000
vn 0.000000 0.000000 1.000000
vn 1.000000 0.000000 0.000000
vn 1.000000 0.000000 0.000000
vn 1.000000 0.000000 0.000000
vn 1.000000 0.000000 0.000000
s off
g polySurface88
usemtl lambert3SG
f 17/1/1 18/2/2 19/3/3 20/4/4
f 1/5/5 6/6/6 5/7/7 3/8/8
f 8/9/9 7/10/10 9/11/11 10/12/12
f 10/12/13 9/11/14 15/13/15 16/14/16
f 12/15/17 11/16/18 7/10/19 8/9/20
f 14/17/21 13/18/22 11/16/23 12/15/24
f 22/19/25 21/20/26 23/21/27 24/22/28
f 2/23/29 13/24/30 18/25/31 17/26/32
f 13/27/33 14/28/34 19/29/35 18/30/36
f 14/31/37 4/32/38 20/33/39 19/34/40
f 4/35/41 2/36/42 17/37/43 20/38/44
f 16/39/45 15/40/46 21/41/47 22/42/48
f 15/43/49 3/44/50 23/45/51 21/46/52
f 3/8/53 5/7/54 24/47/55 23/48/56
f 5/49/57 16/50/58 22/51/59 24/52/60
