# This file uses centimeters as units for non-parametric coordinates.

mtllib FoundationColumb_Module.mtl
g default
v -306.787048 -89.999992 316.207062
v -283.050812 -89.999992 316.207062
v -306.787048 -15.706032 306.294952
v -283.050812 -15.706032 306.294952
v -306.787048 0.531147 292.470764
v -283.050812 0.531147 292.470764
v -306.787048 -89.999992 292.470764
v -283.050812 -89.999992 292.470764
v -306.787048 -53.787537 292.470764
v -306.787048 -60.282406 312.242188
v -283.050812 -60.282406 312.242188
v -283.050812 -53.787537 292.470764
v -306.787048 -37.491932 292.470764
v -306.787048 -46.909496 310.458038
v -283.050812 -46.909496 310.458038
v -283.050812 -37.491932 292.470764
v -304.588409 -52.879707 294.302185
v -304.588409 -58.171352 310.410797
v -304.588409 -47.275875 308.957153
v -304.588409 -39.602985 294.302185
v -285.249481 -58.171352 310.410797
v -285.249481 -47.275875 308.957153
v -285.249481 -52.879707 294.302185
v -285.249481 -39.602985 294.302185
vt 0.166292 0.916432
vt 0.183485 0.916432
vt 0.183485 0.939034
vt 0.166292 0.939034
vt 0.183485 0.950795
vt 0.166292 0.950795
vt 0.523299 0.923923
vt 0.540492 0.923923
vt 0.540492 0.941116
vt 0.523299 0.941116
vt 0.190824 0.910622
vt 0.203853 0.917444
vt 0.203853 0.944985
vt 0.193840 0.933224
vt 0.211582 0.917444
vt 0.224611 0.910622
vt 0.221595 0.933224
vt 0.211582 0.944985
vt 0.029380 0.863902
vt 0.046573 0.863902
vt 0.043701 0.885428
vt 0.029380 0.890132
vt 0.388966 0.913220
vt 0.406159 0.913220
vt 0.406159 0.934746
vt 0.388966 0.934746
vt 0.006247 0.860802
vt 0.023440 0.860802
vt 0.023440 0.887032
vt 0.009119 0.882328
vt 0.030707 0.890790
vt 0.042375 0.886957
vt 0.041322 0.894849
vt 0.030707 0.900407
vt 0.390559 0.936275
vt 0.404567 0.936275
vt 0.404567 0.944167
vt 0.390559 0.944167
vt 0.010445 0.883857
vt 0.022113 0.887690
vt 0.022113 0.897307
vt 0.011498 0.891749
vt 0.517359 0.941116
vt 0.504330 0.941116
vt 0.505657 0.939523
vt 0.516272 0.939523
vt 0.517359 0.923923
vt 0.516272 0.925516
vt 0.504330 0.923923
vt 0.505657 0.925516
vn 0.000000 0.132246 0.991217
vn 0.000000 0.132246 0.991217
vn 0.000000 0.132246 0.991217
vn 0.000000 0.132246 0.991217
vn 0.000000 0.648263 0.761416
vn 0.000000 0.648263 0.761416
vn 0.000000 0.648263 0.761416
vn 0.000000 0.648263 0.761416
vn 0.000000 -1.000000 0.000000
vn 0.000000 -1.000000 0.000000
vn 0.000000 -1.000000 0.000000
vn 0.000000 -1.000000 0.000000
vn 1.000000 0.000000 0.000000
vn 1.000000 0.000000 0.000000
vn 1.000000 0.000000 0.000000
vn 1.000000 0.000000 0.000000
vn -1.000000 0.000000 0.000000
vn -1.000000 0.000000 0.000000
vn -1.000000 0.000000 0.000000
vn -1.000000 0.000000 0.000000
vn -1.000000 0.000000 0.000000
vn -1.000000 0.000000 0.000000
vn -1.000000 0.000000 0.000000
vn -1.000000 0.000000 0.000000
vn 0.000000 0.132247 0.991217
vn 0.000000 0.132247 0.991217
vn 0.000000 0.132247 0.991217
vn 0.000000 0.132247 0.991217
vn 1.000000 0.000000 0.000000
vn 1.000000 0.000000 0.000000
vn 1.000000 0.000000 0.000000
vn 1.000000 0.000000 0.000000
vn -1.000000 0.000000 0.000000
vn -1.000000 0.000000 0.000000
vn -1.000000 0.000000 0.000000
vn -1.000000 0.000000 0.000000
vn 0.000000 0.132245 0.991217
vn 0.000000 0.132245 0.991217
vn 0.000000 0.132245 0.991217
vn 0.000000 0.132245 0.991217
vn 1.000000 0.000002 0.000000
vn 1.000000 0.000002 0.000000
vn 1.000000 0.000002 0.000000
vn 1.000000 0.000002 0.000000
vn -0.546307 0.795750 0.261401
vn -0.546308 0.795750 0.261401
vn -0.546308 0.795750 0.261401
vn -0.546308 0.795750 0.261401
vn -0.421093 -0.803545 -0.420709
vn -0.421093 -0.803545 -0.420709
vn -0.421093 -0.803545 -0.420709
vn -0.421093 -0.803545 -0.420709
vn 0.000000 0.655301 0.755368
vn 0.000000 0.655301 0.755368
vn 0.000000 0.655301 0.755368
vn 0.000000 0.655301 0.755368
vn 0.000000 -0.971475 0.237143
vn 0.000000 -0.971475 0.237143
vn 0.000000 -0.971475 0.237143
vn 0.000000 -0.971475 0.237143
vn 0.546306 0.795750 0.261403
vn 0.546306 0.795750 0.261403
vn 0.546306 0.795750 0.261403
vn 0.546307 0.795750 0.261403
vn 0.421087 -0.803547 -0.420711
vn 0.421087 -0.803547 -0.420711
vn 0.421087 -0.803547 -0.420711
vn 0.421087 -0.803547 -0.420711
s off
g polySurface54
usemtl lambert3SG
f 14/1/1 15/2/2 4/3/3 3/4/4
f 3/4/5 4/3/6 6/5/7 5/6/8
f 7/7/9 8/8/10 2/9/11 1/10/12
f 15/11/13 16/12/14 6/13/15 4/14/16
f 13/15/17 14/16/18 3/17/19 5/18/20
f 7/19/21 1/20/22 10/21/23 9/22/24
f 1/23/25 2/24/26 11/25/27 10/26/28
f 2/27/29 8/28/30 12/29/31 11/30/32
f 17/31/33 18/32/34 19/33/35 20/34/36
f 18/35/37 21/36/38 22/37/39 19/38/40
f 21/39/41 23/40/42 24/41/43 22/42/44
f 9/22/45 10/21/46 18/32/47 17/31/48
f 14/43/49 13/44/50 20/45/51 19/46/52
f 10/26/53 11/25/54 21/36/55 18/35/56
f 15/47/57 14/43/58 19/46/59 22/48/60
f 11/30/61 12/29/62 23/40/63 21/39/64
f 16/49/65 15/47/66 22/48/67 24/50/68
