# This file uses centimeters as units for non-parametric coordinates.

mtllib MailBox.mtl
g default
v 0.460521 0.000799 -1.089235
v -0.444568 0.000799 -1.095843
v -1.089235 0.000799 -0.460521
v -1.095843 0.000799 0.444568
v -0.460521 0.000799 1.089235
v 0.444568 0.000799 1.095843
v 1.089235 0.000799 0.460521
v 1.095843 0.000799 -0.444568
v 0.460521 3.855294 -1.089235
v -0.444568 3.855294 -1.095843
v -1.089235 3.855294 -0.460521
v -1.095843 3.855294 0.444568
v -0.460521 3.855294 1.089235
v 0.444568 3.855294 1.095843
v 1.089235 3.855294 0.460521
v 1.095843 3.855294 -0.444568
v 0.000000 0.000799 0.000000
v 0.460521 3.650028 -1.089235
v -0.444568 3.650028 -1.095843
v -1.089235 3.650028 -0.460521
v -1.095843 3.650028 0.444568
v -0.460521 3.650028 1.089235
v 0.444568 3.650028 1.095843
v 1.089235 3.650028 0.460521
v 1.095843 3.650028 -0.444568
v 0.491020 3.744582 -1.161372
v 1.168418 3.744582 -0.474010
v 1.161372 3.744582 0.491020
v 0.474010 3.744582 1.168418
v -0.491020 3.744582 1.161372
v -1.168418 3.744582 0.474010
v -1.161372 3.744582 -0.491020
v -0.474010 3.744582 -1.168418
v 0.460521 4.003458 -1.089235
v -0.444568 4.003458 -1.095843
v -1.089235 4.003458 -0.460521
v -1.095843 4.003458 0.444568
v -0.460521 4.003458 1.089235
v 0.444568 4.003458 1.095843
v 1.089235 4.003458 0.460521
v 1.095843 4.003458 -0.444568
v 0.539723 4.163666 -1.276564
v -0.521026 4.163666 -1.284309
v -1.276564 4.163666 -0.539723
v -1.284309 4.163666 0.521026
v -0.539723 4.163666 1.276564
v 0.521026 4.163666 1.284309
v 1.276565 4.163666 0.539723
v 1.284309 4.163666 -0.521026
v 0.592908 4.351810 -1.402358
v -0.572368 4.351810 -1.410866
v -1.402358 4.351810 -0.592907
v -1.410866 4.351810 0.572368
v -0.592908 4.351810 1.402358
v 0.572368 4.351810 1.410866
v 1.402358 4.351810 0.592908
v 1.410866 4.351810 -0.572368
v 0.592908 4.498184 -1.402358
v -0.572368 4.498184 -1.410866
v -1.402358 4.498184 -0.592907
v -1.410866 4.498184 0.572368
v -0.592908 4.498184 1.402358
v 0.572368 4.498184 1.410866
v 1.402358 4.498184 0.592908
v 1.410866 4.498184 -0.572368
v 0.452059 4.792262 -1.069220
v -0.436399 4.792262 -1.075707
v -1.069220 4.792262 -0.452059
v -1.075707 4.792262 0.436399
v -0.452059 4.792262 1.069220
v 0.436399 4.792262 1.075707
v 1.069221 4.792262 0.452059
v 1.075707 4.792262 -0.436399
v 0.452059 4.959339 -1.069220
v -0.436399 4.959339 -1.075707
v 0.000000 5.445385 -0.000000
v -1.069220 4.959339 -0.452059
v -1.075707 4.959339 0.436399
v -0.452059 4.959339 1.069220
v 0.436399 4.959339 1.075707
v 1.069221 4.959339 0.452059
v 1.075707 4.959339 -0.436399
vt 0.111306 0.001920
vt 0.215414 0.001920
vt 0.215414 0.421674
vt 0.111306 0.421674
vt 0.289567 0.001920
vt 0.289567 0.421674
vt 0.218801 0.432550
vt 0.107798 0.432550
vt 0.038228 0.001920
vt 0.038228 0.421674
vt 0.297865 0.432550
vt 0.215414 0.445285
vt 0.111306 0.445285
vt 0.029880 0.432550
vt 0.289567 0.445285
vt 0.215414 0.462328
vt 0.111306 0.462328
vt 0.038228 0.445285
vt 0.289567 0.462328
vt 0.224209 0.480756
vt 0.102196 0.480756
vt 0.038228 0.462328
vt 0.230115 0.502397
vt 0.096078 0.502397
vt 0.311115 0.480756
vt 0.325585 0.502397
vt 0.230115 0.519234
vt 0.096078 0.519234
vt 0.016549 0.480756
vt 0.001992 0.502397
vt 0.325585 0.519234
vt 0.214475 0.553060
vt 0.112279 0.553060
vt 0.001992 0.519234
vt 0.214475 0.572278
vt 0.112279 0.572278
vt 0.287265 0.553060
vt 0.287265 0.572278
vt 0.040544 0.553060
vt 0.040544 0.572278
vt 0.442823 0.001920
vt 0.546931 0.001920
vt 0.546931 0.421674
vt 0.442823 0.421674
vt 0.621084 0.001920
vt 0.621084 0.421674
vt 0.550318 0.432550
vt 0.439315 0.432550
vt 0.369745 0.001920
vt 0.369745 0.421674
vt 0.629382 0.432550
vt 0.546931 0.445285
vt 0.442823 0.445285
vt 0.361397 0.432550
vt 0.621084 0.445285
vt 0.546931 0.462328
vt 0.442823 0.462328
vt 0.369745 0.445285
vt 0.621084 0.462328
vt 0.555726 0.480756
vt 0.433712 0.480756
vt 0.369745 0.462328
vt 0.561631 0.502397
vt 0.427595 0.502397
vt 0.642632 0.480756
vt 0.657101 0.502397
vt 0.561631 0.519234
vt 0.427595 0.519234
vt 0.348066 0.480756
vt 0.333509 0.502397
vt 0.657101 0.519234
vt 0.545991 0.553060
vt 0.443796 0.553060
vt 0.333509 0.519234
vt 0.545991 0.572278
vt 0.443796 0.572278
vt 0.618782 0.553060
vt 0.618782 0.572278
vt 0.372061 0.553060
vt 0.372061 0.572278
vt 0.349805 0.576270
vt 0.453913 0.577030
vt 0.400942 0.702320
vt 0.526992 0.651183
vt 0.275652 0.649348
vt 0.526232 0.755292
vt 0.274892 0.753457
vt 0.452078 0.828370
vt 0.347970 0.827610
vt 0.197021 0.822991
vt 0.094826 0.823738
vt 0.145023 0.700004
vt 0.022035 0.752002
vt 0.268756 0.750201
vt 0.021289 0.649807
vt 0.268010 0.648005
vt 0.093024 0.577016
vt 0.195220 0.576270
vt 0.686647 0.775135
vt 0.759725 0.849288
vt 0.750615 0.870836
vt 0.664968 0.783930
vt 0.687407 0.671027
vt 0.665859 0.661916
vt 0.650411 0.789835
vt 0.651390 0.655799
vt 0.761560 0.597948
vt 0.752765 0.576270
vt 0.533127 0.849157
vt 0.607280 0.776079
vt 0.628828 0.785189
vt 0.541921 0.870836
vt 0.608040 0.671971
vt 0.629719 0.663176
vt 0.534962 0.597818
vt 0.544072 0.576270
vt 0.644276 0.657271
vt 0.643297 0.791307
vt 0.998008 0.694442
vt 0.903922 0.789912
vt 0.887721 0.751593
vt 0.959456 0.678802
vt 0.997029 0.560405
vt 0.958710 0.576606
vt 0.901559 0.466319
vt 0.885919 0.504871
vt 0.864144 0.789912
vt 0.768674 0.695826
vt 0.806993 0.679625
vt 0.879784 0.751360
vt 0.767695 0.561789
vt 0.806247 0.577429
vt 0.861782 0.466319
vt 0.877983 0.504638
vt 0.772326 0.462328
vt 0.668217 0.462328
vt 0.668217 0.042573
vt 0.772326 0.042573
vt 0.664831 0.031697
vt 0.775834 0.031697
vt 0.668217 0.018962
vt 0.772326 0.018962
vt 0.668217 0.001920
vt 0.772326 0.001920
vt 0.787225 0.001920
vt 0.891333 0.001920
vt 0.891333 0.421674
vt 0.787225 0.421674
vt 0.894720 0.432550
vt 0.783717 0.432550
vt 0.891333 0.445285
vt 0.787225 0.445285
vt 0.891333 0.462328
vt 0.787225 0.462328
vt 0.018829 0.827729
vt 0.018829 0.961766
vt 0.001992 0.961766
vt 0.001992 0.827729
vt 0.025574 0.961766
vt 0.025574 0.827729
vt 0.042411 0.827729
vt 0.042411 0.961766
vt 0.068180 0.827729
vt 0.068180 0.929924
vt 0.048962 0.929924
vt 0.048962 0.827729
vt 0.076247 0.929924
vt 0.076247 0.827729
vt 0.095465 0.827729
vt 0.095465 0.929924
vn 0.007299 -0.022983 -0.999709
vn 0.007299 -0.022983 -0.999709
vn 0.007301 0.006264 -0.999954
vn 0.007301 0.006264 -0.999954
vn -0.701740 -0.022983 -0.712062
vn -0.701740 -0.022983 -0.712062
vn -0.701911 0.006264 -0.712237
vn -0.701911 0.006264 -0.712237
vn -0.999709 -0.022983 -0.007299
vn -0.999709 -0.022983 -0.007299
vn -0.999954 0.006264 -0.007301
vn -0.999954 0.006264 -0.007301
vn -0.712062 -0.022983 0.701740
vn -0.712062 -0.022983 0.701740
vn -0.712236 0.006264 0.701912
vn -0.712236 0.006264 0.701912
vn -0.007299 -0.022983 0.999709
vn -0.007299 -0.022983 0.999709
vn -0.007301 0.006264 0.999954
vn -0.007301 0.006264 0.999954
vn 0.701740 -0.022983 0.712063
vn 0.701740 -0.022983 0.712063
vn 0.701911 0.006264 0.712237
vn 0.701911 0.006264 0.712237
vn 0.999709 -0.022983 0.007299
vn 0.999709 -0.022983 0.007299
vn 0.999954 0.006264 0.007301
vn 0.999954 0.006264 0.007301
vn 0.712062 -0.022983 -0.701740
vn 0.712062 -0.022983 -0.701740
vn 0.712236 0.006264 -0.701912
vn 0.712236 0.006264 -0.701912
vn 0.000000 -1.000000 0.000000
vn 0.000000 -1.000000 0.000000
vn 0.000000 -1.000000 0.000000
vn 0.000000 -1.000000 0.000000
vn 0.000000 -1.000000 0.000000
vn 0.000000 -1.000000 0.000000
vn 0.000000 -1.000000 0.000000
vn 0.000000 -1.000000 0.000000
vn 0.000000 -1.000000 0.000000
vn 0.150397 0.922411 -0.355723
vn -0.145187 0.922411 -0.357881
vn 0.000000 1.000000 0.000000
vn -0.355722 0.922411 -0.150397
vn -0.357881 0.922411 0.145187
vn -0.150397 0.922411 0.355723
vn 0.145187 0.922411 0.357881
vn 0.355722 0.922411 0.150398
vn 0.357881 0.922411 -0.145187
vn 0.007301 0.000000 -0.999973
vn 0.007301 0.000000 -0.999973
vn -0.701925 0.000000 -0.712251
vn -0.701925 0.000000 -0.712251
vn -0.999973 0.000000 -0.007301
vn -0.999973 0.000000 -0.007301
vn -0.712250 0.000000 0.701925
vn -0.712250 0.000000 0.701925
vn -0.007301 0.000000 0.999973
vn -0.007301 0.000000 0.999973
vn 0.701925 0.000000 0.712251
vn 0.701925 0.000000 0.712251
vn 0.999973 0.000000 0.007301
vn 0.999973 0.000000 0.007301
vn 0.712250 0.000000 -0.701925
vn 0.712250 0.000000 -0.701925
vn 0.596207 0.547087 -0.587565
vn 0.596207 0.547087 -0.587565
vn 0.837054 0.547086 0.006112
vn 0.837054 0.547086 0.006112
vn 0.587564 0.547087 0.596208
vn 0.587564 0.547087 0.596209
vn -0.006112 0.547089 0.837052
vn -0.006112 0.547089 0.837052
vn -0.596207 0.547087 0.587565
vn -0.596207 0.547087 0.587565
vn -0.837053 0.547087 -0.006111
vn -0.837053 0.547087 -0.006111
vn -0.587564 0.547087 -0.596208
vn -0.587564 0.547087 -0.596208
vn 0.006112 0.547089 -0.837052
vn 0.006112 0.547089 -0.837052
vn 0.007301 -0.000000 -0.999973
vn 0.007301 -0.000000 -0.999973
vn 0.006024 -0.564953 -0.825101
vn 0.006024 -0.564953 -0.825101
vn -0.701926 0.000000 -0.712250
vn -0.701926 0.000000 -0.712250
vn -0.579175 -0.564953 -0.587694
vn -0.579175 -0.564953 -0.587694
vn -0.999973 0.000000 -0.007301
vn -0.999973 0.000000 -0.007301
vn -0.825101 -0.564953 -0.006024
vn -0.825101 -0.564953 -0.006024
vn -0.712250 -0.000000 0.701926
vn -0.712250 -0.000000 0.701926
vn -0.587694 -0.564953 0.579175
vn -0.587694 -0.564953 0.579175
vn -0.007301 0.000000 0.999973
vn -0.007301 0.000000 0.999973
vn -0.006024 -0.564953 0.825101
vn -0.006024 -0.564953 0.825101
vn 0.701926 0.000000 0.712250
vn 0.701926 0.000000 0.712250
vn 0.579175 -0.564954 0.587694
vn 0.579175 -0.564954 0.587694
vn 0.999973 0.000000 0.007301
vn 0.999973 0.000000 0.007301
vn 0.825101 -0.564954 0.006024
vn 0.825101 -0.564954 0.006024
vn 0.712251 -0.000000 -0.701925
vn 0.712251 -0.000000 -0.701925
vn 0.587694 -0.564953 -0.579174
vn 0.587694 -0.564954 -0.579174
vn 0.004737 -0.760959 -0.648783
vn 0.004737 -0.760959 -0.648783
vn -0.455409 -0.760959 -0.462108
vn -0.455409 -0.760959 -0.462108
vn -0.648783 -0.760959 -0.004737
vn -0.648783 -0.760959 -0.004737
vn -0.462108 -0.760959 0.455409
vn -0.462108 -0.760959 0.455409
vn -0.004737 -0.760958 0.648783
vn -0.004737 -0.760959 0.648783
vn 0.455409 -0.760959 0.462108
vn 0.455409 -0.760959 0.462108
vn 0.648783 -0.760959 0.004737
vn 0.648783 -0.760959 0.004737
vn 0.462108 -0.760959 -0.455409
vn 0.462108 -0.760959 -0.455409
vn 0.006064 -0.556986 -0.830500
vn 0.006064 -0.556986 -0.830500
vn 0.006064 -0.556986 -0.830500
vn 0.006064 -0.556986 -0.830500
vn -0.582965 -0.556986 -0.591539
vn -0.582965 -0.556986 -0.591539
vn -0.582965 -0.556986 -0.591540
vn -0.582965 -0.556986 -0.591539
vn -0.830499 -0.556987 -0.006064
vn -0.830499 -0.556987 -0.006064
vn -0.830499 -0.556987 -0.006064
vn -0.830499 -0.556987 -0.006064
vn -0.591540 -0.556986 0.582964
vn -0.591540 -0.556986 0.582964
vn -0.591540 -0.556986 0.582964
vn -0.591540 -0.556986 0.582964
vn -0.006064 -0.556986 0.830500
vn -0.006064 -0.556986 0.830500
vn -0.006064 -0.556986 0.830500
vn -0.006064 -0.556986 0.830500
vn 0.582964 -0.556985 0.591541
vn 0.582964 -0.556985 0.591541
vn 0.582964 -0.556985 0.591541
vn 0.582964 -0.556985 0.591541
vn 0.830500 -0.556985 0.006064
vn 0.830500 -0.556985 0.006064
vn 0.830500 -0.556985 0.006064
vn 0.830500 -0.556985 0.006064
vn 0.591540 -0.556986 -0.582964
vn 0.591540 -0.556986 -0.582964
vn 0.591540 -0.556986 -0.582964
vn 0.591540 -0.556986 -0.582964
vn 0.007301 0.000000 -0.999973
vn 0.007301 0.000000 -0.999973
vn 0.006069 0.555931 -0.831206
vn 0.006069 0.555931 -0.831206
vn -0.701925 0.000000 -0.712251
vn -0.701925 0.000000 -0.712251
vn -0.583460 0.555932 -0.592043
vn -0.583460 0.555932 -0.592043
vn -0.999973 0.000000 -0.007301
vn -0.999973 0.000000 -0.007301
vn -0.831206 0.555932 -0.006069
vn -0.831206 0.555932 -0.006069
vn -0.712250 0.000000 0.701925
vn -0.712250 0.000000 0.701925
vn -0.592043 0.555931 0.583460
vn -0.592043 0.555931 0.583460
vn -0.007301 0.000000 0.999973
vn -0.007301 0.000000 0.999973
vn -0.006069 0.555932 0.831206
vn -0.006069 0.555932 0.831206
vn 0.701925 0.000000 0.712251
vn 0.701925 0.000000 0.712251
vn 0.583460 0.555932 0.592042
vn 0.583460 0.555932 0.592042
vn 0.999973 0.000000 0.007301
vn 0.999973 0.000000 0.007301
vn 0.831206 0.555932 0.006069
vn 0.831206 0.555932 0.006069
vn 0.712250 0.000000 -0.701925
vn 0.712250 0.000000 -0.701925
vn 0.592042 0.555931 -0.583460
vn 0.592043 0.555931 -0.583461
vn 0.004824 0.750692 -0.660635
vn 0.004824 0.750692 -0.660635
vn -0.463729 0.750691 -0.470550
vn -0.463729 0.750691 -0.470550
vn -0.660635 0.750692 -0.004824
vn -0.660635 0.750692 -0.004824
vn -0.470550 0.750691 0.463730
vn -0.470550 0.750691 0.463730
vn -0.004824 0.750691 0.660636
vn -0.004824 0.750691 0.660636
vn 0.463729 0.750692 0.470550
vn 0.463729 0.750692 0.470550
vn 0.660635 0.750691 0.004823
vn 0.660635 0.750691 0.004823
vn 0.470550 0.750691 -0.463730
vn 0.470550 0.750691 -0.463730
vn 0.007301 0.000000 -0.999973
vn 0.007301 0.000000 -0.999973
vn 0.007301 0.000000 -0.999973
vn 0.007301 0.000000 -0.999973
vn -0.701925 -0.000001 -0.712251
vn -0.701925 -0.000001 -0.712251
vn -0.701925 -0.000001 -0.712251
vn -0.701925 -0.000001 -0.712251
vn -0.999973 -0.000001 -0.007301
vn -0.999973 -0.000001 -0.007301
vn -0.999973 -0.000001 -0.007301
vn -0.999973 -0.000001 -0.007301
vn -0.712250 0.000000 0.701925
vn -0.712251 0.000000 0.701925
vn -0.712251 0.000000 0.701925
vn -0.712251 0.000000 0.701925
vn -0.007301 0.000000 0.999973
vn -0.007301 0.000000 0.999973
vn -0.007301 0.000000 0.999973
vn -0.007301 0.000000 0.999973
vn 0.701925 0.000000 0.712251
vn 0.701925 0.000000 0.712251
vn 0.701925 0.000000 0.712251
vn 0.701925 0.000000 0.712251
vn 0.999973 0.000000 0.007301
vn 0.999973 0.000000 0.007301
vn 0.999973 0.000000 0.007301
vn 0.999973 0.000000 0.007301
vn 0.712251 0.000000 -0.701925
vn 0.712251 0.000000 -0.701925
vn 0.712251 0.000000 -0.701925
vn 0.712251 0.000000 -0.701925
s 1
g MailBox
usemtl initialShadingGroup
f 18/138/1 19/137/2 33/139/3 26/140/4
s 2
f 19/10/5 20/4/6 32/8/7 33/14/8
s 3
f 20/4/9 21/3/10 31/7/11 32/8/12
s 4
f 21/3/13 22/6/14 30/11/15 31/7/16
s 5
f 22/148/17 23/147/18 29/149/19 30/150/20
s 6
f 23/50/21 24/44/22 28/48/23 29/54/24
s 7
f 24/44/25 25/43/26 27/47/27 28/48/28
s 8
f 25/43/29 18/46/30 26/51/31 27/47/32
s 9
f 2/81/33 1/82/34 17/83/35
f 3/85/36 2/81/33 17/83/35
f 4/87/37 3/85/36 17/83/35
f 5/89/38 4/87/37 17/83/35
f 6/88/39 5/89/38 17/83/35
f 7/86/40 6/88/39 17/83/35
f 8/84/41 7/86/40 17/83/35
f 1/82/34 8/84/41 17/83/35
s 10
f 74/90/42 75/91/43 76/92/44
f 75/91/43 77/93/45 76/92/44
f 77/93/45 78/95/46 76/92/44
f 78/95/46 79/97/47 76/92/44
f 79/97/47 80/98/48 76/92/44
f 80/98/48 81/96/49 76/92/44
f 81/96/49 82/94/50 76/92/44
f 82/94/50 74/90/42 76/92/44
s 1
f 1/135/51 2/136/52 19/137/2 18/138/1
s 2
f 2/9/53 3/1/54 20/4/6 19/10/5
s 3
f 3/1/55 4/2/56 21/3/10 20/4/9
s 4
f 4/2/57 5/5/58 22/6/14 21/3/13
s 5
f 5/145/59 6/146/60 23/147/18 22/148/17
s 6
f 6/49/61 7/41/62 24/44/22 23/50/21
s 7
f 7/41/63 8/42/64 25/43/26 24/44/25
s 8
f 8/42/65 1/45/66 18/46/30 25/43/29
f 27/47/32 26/51/31 9/55/67 16/52/68
s 7
f 28/48/28 27/47/27 16/52/69 15/53/70
s 6
f 29/54/24 28/48/23 15/53/71 14/58/72
s 5
f 30/150/20 29/149/19 14/151/73 13/152/74
s 4
f 31/7/16 30/11/15 13/15/75 12/12/76
s 3
f 32/8/12 31/7/11 12/12/77 11/13/78
s 2
f 33/14/8 32/8/7 11/13/79 10/18/80
s 1
f 26/140/4 33/139/3 10/141/81 9/142/82
s 11
f 9/142/83 10/141/84 35/143/85 34/144/86
s 12
f 10/18/87 11/13/88 36/17/89 35/22/90
s 13
f 11/13/91 12/12/92 37/16/93 36/17/94
s 14
f 12/12/95 13/15/96 38/19/97 37/16/98
s 15
f 13/152/99 14/151/100 39/153/101 38/154/102
s 16
f 14/58/103 15/53/104 40/57/105 39/62/106
s 17
f 15/53/107 16/52/108 41/56/109 40/57/110
s 18
f 16/52/111 9/55/112 34/59/113 41/56/114
s 11
f 34/103/86 35/99/85 43/102/115 42/104/116
s 12
f 35/99/90 36/100/89 44/101/117 43/102/118
s 13
f 36/17/94 37/16/93 45/20/119 44/21/120
s 14
f 37/109/98 38/110/97 46/111/121 45/112/122
s 15
f 38/110/102 39/113/101 47/114/123 46/111/124
s 16
f 39/113/106 40/115/105 48/116/125 47/114/126
s 17
f 40/57/110 41/56/109 49/60/127 48/61/128
s 18
f 41/107/114 34/103/113 42/104/129 49/108/130
s off
f 42/104/131 43/102/132 51/105/133 50/106/134
f 43/29/135 44/21/136 52/24/137 51/30/138
f 44/21/139 45/20/140 53/23/141 52/24/142
f 45/20/143 46/25/144 54/26/145 53/23/146
f 46/111/147 47/114/148 55/117/149 54/118/150
f 47/69/151 48/61/152 56/64/153 55/70/154
f 48/61/155 49/60/156 57/63/157 56/64/158
f 49/60/159 42/65/160 50/66/161 57/63/162
s 19
f 50/155/163 51/156/164 59/157/165 58/158/166
s 20
f 51/30/167 52/24/168 60/28/169 59/34/170
s 21
f 52/24/171 53/23/172 61/27/173 60/28/174
s 22
f 53/23/175 54/26/176 62/31/177 61/27/178
s 23
f 54/159/179 55/160/180 63/161/181 62/162/182
s 24
f 55/70/183 56/64/184 64/68/185 63/74/186
s 25
f 56/64/187 57/63/188 65/67/189 64/68/190
s 26
f 57/63/191 50/66/192 58/71/193 65/67/194
s 19
f 58/123/166 59/119/165 67/122/195 66/124/196
s 20
f 59/119/170 60/120/169 68/121/197 67/122/198
s 21
f 60/28/174 61/27/173 69/32/199 68/33/200
s 22
f 61/127/178 62/128/177 70/129/201 69/130/202
s 23
f 62/128/182 63/131/181 71/132/203 70/129/204
s 24
f 63/131/186 64/133/185 72/134/205 71/132/206
s 25
f 64/68/190 65/67/189 73/72/207 72/73/208
s 26
f 65/125/194 58/123/193 66/124/209 73/126/210
s off
f 66/163/211 67/164/212 75/165/213 74/166/214
f 67/39/215 68/33/216 77/36/217 75/40/218
f 68/33/219 69/32/220 78/35/221 77/36/222
f 69/32/223 70/37/224 79/38/225 78/35/226
f 70/167/227 71/168/228 80/169/229 79/170/230
f 71/79/231 72/73/232 81/76/233 80/80/234
f 72/73/235 73/72/236 82/75/237 81/76/238
f 73/72/239 66/77/240 74/78/241 82/75/242
